<svg width="90" height="100" viewBox="0 0 90 100" fill="none" xmlns="http://www.w3.org/2000/svg">
<path d="M3.35258 7.25468V6.82484C3.35258 4.89229 4.95317 3.31143 6.90974 3.31143H83.0897C85.0462 3.31143 86.6474 4.89229 86.6474 6.82484V7.25468C86.6474 9.18723 85.0462 10.7688 83.0897 10.7688H6.90974C4.95317 10.7688 3.35258 9.18723 3.35258 7.25468ZM40.4944 22.6429V14.0802H49.5055V22.6429H40.4944ZM57.8266 42.5525H32.1728V29.0816L36.6775 25.9543H53.3221L57.8266 29.0816V42.5525ZM35.5013 50.2774V45.8639H44.9997H54.4981V50.2774H44.9997H35.5013ZM66.4937 89.2615H23.5058C23.5066 89.235 23.5103 89.2092 23.5103 89.1827V64.0019C23.5103 63.9755 23.5066 63.949 23.5058 63.9225H66.4937C66.493 63.949 66.4897 63.9755 66.4897 64.0019V89.1827C66.4897 89.2092 66.493 89.235 66.4937 89.2615ZM3.35258 57.187H16.9914L20.1577 64.0019V89.1827L16.9914 95.9977H3.35258V57.187ZM86.6474 95.9977H73.0084L69.8422 89.1827V64.0019L73.0084 57.187H86.6474V95.9977ZM57.6643 53.5888V60.6111H32.3352V53.5888H57.6643ZM83.0897 14.0802C86.9002 14.0802 90 11.0184 90 7.25468V6.82484C90 3.06174 86.9002 0 83.0897 0H6.90974C3.0996 0 0 3.06174 0 6.82484V7.25468C0 11.0184 3.0996 14.0802 6.90974 14.0802H37.1414V22.6429H36.6775C35.9874 22.6429 35.3142 22.8528 34.7495 23.2449L30.2451 26.3722C29.3519 26.9921 28.8202 28.0028 28.8202 29.0816V42.5525C28.8202 44.3738 30.3084 45.8487 32.1487 45.862V50.296C30.3857 50.3933 28.9826 51.8225 28.9826 53.5888V60.6111H22.2712L20.0385 55.8055C19.4919 54.6293 18.3018 53.8756 16.9914 53.8756H3.35258C1.50082 53.8756 0 55.3578 0 57.187V95.9977C0 97.8262 1.50082 99.3091 3.35258 99.3091H16.9914C18.3018 99.3091 19.4919 98.5547 20.0385 97.3785L22.2712 92.5729H67.7288L69.9609 97.3785C70.5074 98.5547 71.6982 99.3091 73.0084 99.3091H86.6474C88.4987 99.3091 90 97.8262 90 95.9977V57.187C90 55.3578 88.4987 53.8756 86.6474 53.8756H73.0084C71.6982 53.8756 70.5074 54.6293 69.9609 55.8062L67.7288 60.6111H61.0169V53.5888C61.0169 51.8225 59.6142 50.3933 57.8507 50.296V45.862C59.6913 45.8487 61.1792 44.3738 61.1792 42.5525V29.0816C61.1792 28.0028 60.6481 26.9921 59.755 26.3722L55.2498 23.2449C54.6852 22.8528 54.012 22.6429 53.3221 22.6429H52.8581V14.0802H83.0897Z" fill="#FC7D34"/>
</svg>
