<svg width="103" height="99" viewBox="0 0 103 99" fill="none" xmlns="http://www.w3.org/2000/svg">
<path d="M98.6663 40.2099H93.7744V14.0404H98.6663V40.2099ZM87.8182 48.3782V5.00089H88.9765L90.0476 12.6177V40.7614L88.9765 48.3782H87.8182ZM78.4058 40.7614V12.6177L79.4769 5.00089H84.0914V48.3782H79.4769L78.4058 40.7614ZM74.6789 39.6488V40.7614C74.6789 40.9324 74.6908 41.1034 74.7147 41.2729L74.8563 42.2788C74.0647 42.5149 73.2732 42.7437 72.4816 42.9561C73.2925 41.9117 74.0282 40.8073 74.6789 39.6488ZM36.9381 49.2968C41.0741 51.8786 45.9607 53.3783 51.1969 53.3783C56.4324 53.3783 61.3197 51.8786 65.4558 49.2968V94.8192H36.9381V49.2968ZM27.6784 41.2729C27.7022 41.1034 27.7142 40.9324 27.7142 40.7614V39.6488C28.3649 40.8073 29.1006 41.9117 29.9115 42.9561C29.12 42.7437 28.3284 42.5149 27.5368 42.2788L27.6784 41.2729ZM27.7142 13.7295V12.6177C27.7142 12.446 27.7022 12.275 27.6784 12.1055L27.5852 11.4422C28.2456 11.2461 28.906 11.0514 29.5664 10.8715C28.8904 11.782 28.2717 12.7369 27.7142 13.7295ZM74.345 26.6892C74.345 39.3853 63.9814 49.6772 51.1969 49.6772C38.4124 49.6772 28.0489 39.3853 28.0489 26.6892C28.0489 13.993 38.4124 3.70107 51.1969 3.70107C63.9814 3.70107 74.345 13.993 74.345 26.6892ZM74.7147 12.1055C74.6908 12.275 74.6789 12.446 74.6789 12.6177V13.7295C74.1214 12.7369 73.5035 11.782 72.8267 10.8715C73.4871 11.0514 74.1475 11.2461 74.8086 11.4422L74.7147 12.1055ZM21.758 48.3782V5.00089H22.9163L23.9873 12.6177V40.7614L22.9163 48.3782H21.758ZM12.3455 40.7614V12.6177L13.4166 5.00089H18.0311V48.3782H13.4166L12.3455 40.7614ZM3.72683 40.2099V14.0404H8.61865V40.2099H3.72683ZM98.6663 10.3393H93.4904L92.6676 4.48867C92.4104 2.66034 90.8355 1.29982 88.9765 1.29982H86.3275C85.9354 1.29982 85.5642 1.37607 85.2094 1.48784C84.8546 1.37607 84.4834 1.29982 84.0914 1.29982H79.4769C77.6179 1.29982 76.0429 2.66034 75.7858 4.48867L75.3296 7.7345C73.9969 7.34663 72.6515 6.97652 71.2942 6.64713C71.0005 6.57607 70.7031 6.54128 70.4095 6.54128C69.951 6.54128 69.5009 6.62862 69.0797 6.7885C64.3258 2.57076 58.0588 0 51.1969 0C44.3344 0 38.068 2.57076 33.3134 6.7885C32.8922 6.62862 32.4428 6.54128 31.9836 6.54128C31.69 6.54128 31.3933 6.57607 31.0989 6.64713C29.7416 6.97652 28.3969 7.34663 27.0635 7.7345L26.6073 4.48867C26.3502 2.66034 24.7752 1.29982 22.9163 1.29982H20.2672C19.8752 1.29982 19.5047 1.37607 19.1492 1.48784C18.7944 1.37607 18.4232 1.29982 18.0311 1.29982H13.4166C11.5576 1.29982 9.98268 2.66034 9.72553 4.48867L8.90341 10.3393H3.72683C1.66887 10.3393 0 11.9959 0 14.0404V40.2099C0 42.2536 1.66887 43.911 3.72683 43.911H9.02562L9.72553 48.8897C9.98268 50.7187 11.5576 52.0792 13.4166 52.0792H18.0311C18.4232 52.0792 18.7944 52.0023 19.1492 51.8905C19.5047 52.0023 19.8752 52.0792 20.2672 52.0792H22.9163C24.7752 52.0792 26.3502 50.7187 26.6073 48.8897L27.0158 45.9865C28.5043 46.4196 30.0047 46.8304 31.5126 47.1886C31.801 47.2567 32.0917 47.2901 32.3787 47.2901C32.6701 47.2901 32.9563 47.2516 33.2351 47.1857C33.2239 47.3012 33.2112 47.4159 33.2112 47.5329V94.8192C33.2112 96.8637 34.8794 98.5203 36.9381 98.5203H65.4558C67.5137 98.5203 69.1826 96.8637 69.1826 94.8192V47.5329C69.1826 47.4159 69.1692 47.3012 69.1587 47.1857C69.4375 47.2516 69.7237 47.2901 70.0144 47.2901C70.3021 47.2901 70.5921 47.2567 70.8813 47.1886C72.3884 46.8311 73.8888 46.4196 75.3781 45.9865L75.7858 48.8897C76.0429 50.7187 77.6179 52.0792 79.4769 52.0792H84.0914C84.4834 52.0792 84.8546 52.0023 85.2094 51.8905C85.5642 52.0023 85.9354 52.0792 86.3275 52.0792H88.9765C90.8355 52.0792 92.4104 50.7187 92.6676 48.8897L93.3675 43.911H98.6663C100.724 43.911 102.393 42.2536 102.393 40.2099V14.0404C102.393 11.9959 100.724 10.3393 98.6663 10.3393Z" fill="#FC7D34"/>
<path d="M51.103 12.5717C54.9998 12.5717 57.7584 13.2038 59.3885 13.8138C57.7584 14.4244 54.9998 15.0566 51.103 15.0566C47.207 15.0566 44.4484 14.4244 42.8183 13.8138C44.4484 13.2038 47.207 12.5717 51.103 12.5717ZM51.103 8.87058C43.6799 8.87058 37.6626 11.0838 37.6626 13.8138C37.6626 16.5444 43.6799 18.7577 51.103 18.7577C58.5269 18.7577 64.5442 16.5444 64.5442 13.8138C64.5442 11.0838 58.5269 8.87058 51.103 8.87058Z" fill="#FC7D34"/>
<path d="M57.9939 39.7024C58.2764 37.9955 59.1045 35.307 61.0529 31.9561C63.0005 28.6051 64.9317 26.5488 66.2786 25.4519C65.9961 27.1588 65.168 29.8472 63.2196 33.1982C61.2712 36.5498 59.3408 38.6061 57.9939 39.7024ZM57.8255 30.1056C54.1136 36.4891 53.035 42.7713 55.4157 44.137C55.7265 44.3146 56.0806 44.4005 56.4704 44.4005C59.065 44.4005 63.2204 40.5995 66.4471 35.0487C70.1589 28.6651 71.2375 22.3829 68.8568 21.0172C68.546 20.8396 68.1919 20.7537 67.8029 20.7537H67.8021C65.2075 20.7545 61.0521 24.5547 57.8255 30.1056Z" fill="#FC7D34"/>
<path d="M51.1969 29.7483C52.8979 29.7483 54.2768 28.3782 54.2768 26.689C54.2768 24.9999 52.8979 23.6305 51.1969 23.6305C49.4953 23.6305 48.1163 24.9999 48.1163 26.689C48.1163 28.3782 49.4953 29.7483 51.1969 29.7483Z" fill="#FC7D34"/>
<path d="M36.1144 25.5588C37.462 26.6558 39.3925 28.7121 41.3409 32.063C43.2893 35.4147 44.1167 38.1031 44.3999 39.8101C43.0523 38.7131 41.1218 36.6568 39.1734 33.3058C37.225 29.9541 36.3976 27.2657 36.1144 25.5588ZM45.9227 44.5082C46.3125 44.5082 46.6666 44.4223 46.9774 44.2439C49.3588 42.879 48.2803 36.5968 44.5683 30.2125C41.3409 24.6617 37.1855 20.8607 34.5908 20.8614C34.2018 20.8614 33.847 20.9465 33.5369 21.1249C31.1554 22.4899 32.234 28.772 35.9459 35.1563C39.1734 40.7072 43.328 44.5082 45.9227 44.5082Z" fill="#FC7D34"/>
</svg>
