<svg width="115" height="98" viewBox="0 0 115 98" fill="none" xmlns="http://www.w3.org/2000/svg">
<path d="M63.2547 20.4135H35.8768V15.2948H61.1179L72.9834 3.52285H111.449V8.64084H75.1201L63.2547 20.4135ZM62.6773 31.3083H36.4196V26.322H62.6773V31.3083ZM43.9617 39.7687V34.8311H55.1351V39.7687H43.9617ZM64.4463 47.4929C60.8899 45.2249 56.7826 43.7376 52.3672 43.2916H64.4463V47.4929ZM49.5483 91.6976C48.5714 91.6976 47.7764 90.9085 47.7764 89.939C47.7764 88.9695 48.5714 88.1811 49.5483 88.1811C50.5256 88.1811 51.3206 88.9695 51.3206 89.939C51.3206 90.9085 50.5256 91.6976 49.5483 91.6976ZM65.1209 84.2672C65.1209 84.7372 64.9369 85.1782 64.6018 85.5108C64.2673 85.8434 63.8079 86.0096 63.3491 86.0096C62.8897 86.0096 62.4309 85.8434 62.0957 85.5108C61.7606 85.1782 61.5766 84.7372 61.5766 84.2672C61.5766 83.798 61.7613 83.3562 62.0957 83.0237C62.4302 82.6918 62.8755 82.5093 63.3484 82.5093C63.8221 82.5093 64.2666 82.6918 64.6018 83.0237C64.9362 83.3562 65.1209 83.798 65.1209 84.2672ZM70.8367 70.5746C70.8367 71.5441 70.042 72.3332 69.0649 72.3332C68.0878 72.3332 67.2931 71.5441 67.2931 70.5746C67.2931 69.6051 68.0878 68.8167 69.0649 68.8167C70.042 68.8167 70.8367 69.6051 70.8367 70.5746ZM65.1209 56.8827C65.1209 57.3527 64.9369 57.7937 64.6018 58.1256C64.2666 58.4581 63.8079 58.6244 63.3491 58.6244C62.8897 58.6244 62.4302 58.4581 62.0957 58.1256C61.7606 57.7937 61.5766 57.3527 61.5766 56.8827C61.5766 56.4135 61.7613 55.9717 62.0957 55.6392C62.4302 55.3073 62.8755 55.1248 63.3484 55.1248C63.8221 55.1248 64.2673 55.3073 64.6018 55.6392C64.9362 55.9717 65.1209 56.4135 65.1209 56.8827ZM28.2599 70.5746C28.2599 69.6051 29.0552 68.8167 30.0321 68.8167C31.0093 68.8167 31.8041 69.6051 31.8041 70.5746C31.8041 71.5441 31.0093 72.3332 30.0321 72.3332C29.0552 72.3332 28.2599 71.5441 28.2599 70.5746ZM35.7486 89.5325C37.1619 89.5325 38.5347 88.9731 39.5148 87.9986C40.5167 87.0052 41.071 85.6785 41.071 84.2672C41.071 82.8574 40.5178 81.5321 39.5131 80.5344C38.5068 79.5353 37.17 78.9865 35.7481 78.9865C34.3262 78.9865 32.9894 79.5353 31.9844 80.533C30.9789 81.5314 30.4258 82.8574 30.4258 84.2672C30.4258 84.5899 30.4582 84.9077 30.5151 85.2184C27.9306 81.9168 26.2019 77.9261 25.6527 73.5698C26.6138 74.9493 28.2174 75.8561 30.0321 75.8561C32.9669 75.8561 35.3547 73.4873 35.3547 70.5746C35.3547 67.6633 32.9669 65.2939 30.0321 65.2939C28.2174 65.2939 26.6138 66.2007 25.6527 67.5802C26.2019 63.2238 27.9306 59.2339 30.5148 55.9316C30.4582 56.2423 30.4258 56.56 30.4258 56.8827C30.4258 58.2926 30.9789 59.6179 31.983 60.6155C32.9645 61.5893 34.3364 62.1473 35.7484 62.1473C37.1608 62.1473 38.5328 61.5893 39.5129 60.6155C40.5167 59.6207 41.071 58.294 41.071 56.8827C41.071 55.4729 40.5178 54.1469 39.5131 53.1492C38.5053 52.1508 37.1692 51.602 35.7481 51.602C35.423 51.602 35.1031 51.6337 34.7897 51.69C38.1176 49.1261 42.1395 47.4112 46.53 46.8666C45.1398 47.8198 44.2257 49.4115 44.2257 51.2117C44.2257 54.1236 46.6135 56.4924 49.5483 56.4924C52.4834 56.4924 54.8709 54.1236 54.8709 51.2117C54.8709 49.4115 53.957 47.8198 52.5667 46.8666C56.9573 47.4112 60.9794 49.1261 64.3071 51.69C63.9939 51.6337 63.6736 51.602 63.3484 51.602C61.9274 51.602 60.5917 52.1508 59.5862 53.1471C58.5792 54.1469 58.026 55.4729 58.026 56.8827C58.026 58.2933 58.5792 59.6193 59.5847 60.617C60.5654 61.5893 61.9367 62.1473 63.3491 62.1473C64.7616 62.1473 66.1335 61.5893 67.1135 60.6155C68.1169 59.6207 68.6715 58.294 68.6715 56.8827C68.6715 56.56 68.6388 56.243 68.582 55.9323C71.1662 59.2339 72.8953 63.2238 73.4442 67.5802C72.4827 66.2007 70.8793 65.2939 69.0649 65.2939C66.13 65.2939 63.7425 67.6633 63.7425 70.5746C63.7425 73.4873 66.13 75.8561 69.0649 75.8561C70.8793 75.8561 72.4827 74.9493 73.4442 73.5698C72.8946 77.9261 71.1662 81.9161 68.582 85.2184C68.6388 84.907 68.6715 84.5899 68.6715 84.2672C68.6715 82.8574 68.1183 81.5321 67.1135 80.5344C66.1072 79.5353 64.7708 78.9865 63.3484 78.9865C61.9267 78.9865 60.5903 79.5353 59.5847 80.533C58.5792 81.5321 58.026 82.8574 58.026 84.2672C58.026 85.6778 58.5792 87.0038 59.5847 88.0015C60.5647 88.9745 61.9367 89.5325 63.3491 89.5325C63.6815 89.5325 64.0109 89.4987 64.3341 89.4388C61.0007 92.0147 56.9694 93.7374 52.5672 94.2841C53.957 93.3301 54.8709 91.7392 54.8709 89.939C54.8709 87.027 52.4834 84.6583 49.5483 84.6583C46.6135 84.6583 44.2257 87.027 44.2257 89.939C44.2257 91.7392 45.1395 93.3301 46.5295 94.2841C42.127 93.7374 38.0957 92.0147 34.7628 89.4388C35.0862 89.4987 35.416 89.5325 35.7486 89.5325ZM33.9764 84.2672C33.9764 83.798 34.1605 83.3562 34.4951 83.0237C34.8299 82.6918 35.2749 82.5093 35.7481 82.5093C36.2216 82.5093 36.6663 82.6918 37.0013 83.0237C37.3358 83.3562 37.5203 83.798 37.5203 84.2672C37.5203 84.7372 37.3361 85.1782 37.001 85.5108C36.6666 85.8434 36.2077 86.0096 35.7486 86.0096C35.2896 86.0096 34.8302 85.8434 34.4951 85.5108C34.1605 85.1782 33.9764 84.7372 33.9764 84.2672ZM35.7481 55.1248C36.2219 55.1248 36.6666 55.3073 37.0013 55.6392C37.3358 55.9717 37.5203 56.4135 37.5203 56.8827C37.5203 57.3527 37.3361 57.7937 37.001 58.1256C36.6663 58.4581 36.2075 58.6244 35.7484 58.6244C35.289 58.6244 34.8299 58.4581 34.4951 58.1256C34.1605 57.7937 33.9764 57.3527 33.9764 56.8827C33.9764 56.4135 34.1605 55.9717 34.4951 55.6392C34.8296 55.3073 35.2749 55.1248 35.7481 55.1248ZM46.7297 43.2916C42.314 43.7376 38.2069 45.2249 34.6504 47.4929V43.2916H46.7297ZM49.5483 49.453C50.5256 49.453 51.3206 50.2422 51.3206 51.2117C51.3206 52.1811 50.5256 52.9696 49.5483 52.9696C48.5714 52.9696 47.7764 52.1811 47.7764 51.2117C47.7764 50.2422 48.5714 49.453 49.5483 49.453ZM14.527 53.858C17.3844 55.3327 20.5012 56.0767 23.6216 56.0767C24.4898 56.0767 25.357 56.0105 26.2193 55.8935C23.4937 60.1421 21.907 65.1769 21.907 70.5753C21.907 75.9737 23.4937 81.0079 26.2193 85.2565C25.3573 85.1402 24.4901 85.0733 23.6219 85.0733C20.5015 85.0733 17.3847 85.8173 14.527 87.292V53.858ZM3.55062 46.9243H10.9764V94.2256H3.55062V46.9243ZM84.5698 87.292C81.7122 85.8173 78.5955 85.0733 75.4752 85.0733C74.6067 85.0733 73.7396 85.1402 72.8775 85.2565C75.603 81.0079 77.1894 75.9737 77.1894 70.5753C77.1894 65.1769 75.603 60.1421 72.8775 55.8935C73.7396 56.0105 74.6067 56.0767 75.4752 56.0767C78.5955 56.0767 81.7122 55.3327 84.5698 53.858V87.292ZM95.5462 46.9243V94.2256H88.1204V46.9243H95.5462ZM111.449 0H72.9834C72.041 0 71.1385 0.371305 70.4724 1.03149L59.6472 11.772H35.8768C33.9159 11.772 32.3261 13.3495 32.3261 15.2948V20.4135C32.3261 21.7811 33.1198 22.9535 34.2676 23.5376C33.4227 24.1815 32.869 25.1834 32.869 26.322V31.3083C32.869 33.2536 34.4585 34.8311 36.4196 34.8311H40.411V39.7687H34.6504C32.6896 39.7687 31.0998 41.3463 31.0998 43.2916V49.1832C31.0998 49.4876 31.1431 49.7849 31.2186 50.0716C30.4768 50.7255 29.7664 51.4139 29.099 52.1424C28.7983 52.0614 28.4873 52.0156 28.1711 52.0156C27.899 52.0156 27.6244 52.0466 27.3517 52.1107C26.1012 52.4052 24.8463 52.5538 23.6216 52.5538C20.5797 52.5538 17.5969 51.6971 14.996 50.0752C14.8449 49.9808 14.6876 49.9004 14.527 49.8307V46.9243C14.527 44.979 12.9373 43.4015 10.9764 43.4015H3.55062C1.58968 43.4015 0 44.979 0 46.9243V94.2256C0 96.1709 1.58968 97.7485 3.55062 97.7485H10.9764C12.9373 97.7485 14.527 96.1709 14.527 94.2256V91.3193C14.6876 91.2502 14.8446 91.1692 14.9958 91.0755C17.5972 89.4536 20.58 88.5961 23.6219 88.5961C24.8465 88.5961 26.1012 88.7455 27.3514 89.0393C27.6241 89.1034 27.899 89.1344 28.1711 89.1344C28.4871 89.1344 28.7983 89.0893 29.099 89.0083C34.1586 94.5293 41.4526 98 49.5483 98C57.644 98 64.9384 94.5293 69.998 89.0083C70.2984 89.0893 70.6094 89.1344 70.9254 89.1344C71.1974 89.1344 71.4722 89.1034 71.7449 89.0393C72.9954 88.7455 74.2502 88.5961 75.4752 88.5961C78.5174 88.5961 81.4999 89.4536 84.1011 91.0755C84.2523 91.1692 84.4093 91.2495 84.5698 91.3193V94.2256C84.5698 96.1709 86.1597 97.7485 88.1204 97.7485H95.5462C97.5068 97.7485 99.0968 96.1709 99.0968 94.2256V46.9243C99.0968 44.979 97.5068 43.4015 95.5462 43.4015H88.1204C86.1597 43.4015 84.5698 44.979 84.5698 46.9243V49.8307C84.4093 49.9004 84.2523 49.9808 84.1011 50.0752C81.4999 51.6971 78.5167 52.5538 75.4752 52.5538C74.2502 52.5538 72.9954 52.4052 71.7456 52.1107C71.4729 52.0466 71.1981 52.0156 70.9254 52.0156C70.6094 52.0156 70.2984 52.0614 69.998 52.1424C69.3305 51.4139 68.6204 50.7255 67.8783 50.0716C67.9536 49.7849 67.9969 49.4876 67.9969 49.1832V43.2916C67.9969 41.3463 66.4076 39.7687 64.4463 39.7687H58.6857V34.8311H62.6773C64.638 34.8311 66.228 33.2536 66.228 31.3083V26.322C66.228 25.1891 65.679 24.1921 64.8418 23.5474C65.1777 23.3797 65.4951 23.1733 65.7657 22.9049L76.5908 12.1637H111.449C113.411 12.1637 115 10.5869 115 8.64084V3.52285C115 1.57683 113.411 0 111.449 0Z" fill="#FC7D34"/>
</svg>
