<svg width="90" height="100" viewBox="0 0 90 100" fill="none" xmlns="http://www.w3.org/2000/svg">
<path d="M84.6411 72.2983C83.0023 75.1959 80.0767 76.8526 77.0272 76.9692C71.1196 84.1916 62.9204 89.3927 53.5805 91.3948C51.9889 94.1787 49.0403 96.055 45.6558 96.055C42.3854 96.055 39.5228 94.3034 37.8977 91.6745C28.4641 90.0144 20.1036 85.1175 13.9633 78.1359C10.7945 78.1331 7.71288 76.4617 6.01442 73.4576C4.38151 70.5699 4.43331 67.1669 5.84531 64.4172C4.18618 59.8278 3.27761 54.871 3.27761 49.7009C3.27761 45.0756 4.01312 40.6242 5.35432 36.4507C3.78369 33.6507 3.66503 30.0997 5.3589 27.1036C6.99771 24.2059 9.92331 22.5492 12.9728 22.4327C18.8804 15.2102 27.0797 10.0091 36.4202 8.00703C38.0112 5.22311 40.9597 3.34686 44.3448 3.34686C47.6146 3.34686 50.4772 5.09862 52.1023 7.72724C61.5366 9.38729 69.8964 14.2851 76.0367 21.266C79.2055 21.2687 82.2871 22.9408 83.9856 25.9442C85.6185 28.8326 85.5667 32.235 84.1547 34.9854C85.8138 39.574 86.7224 44.5307 86.7224 49.7009C86.7224 54.3264 85.9869 58.7774 84.6457 62.9511C86.2163 65.7517 86.335 69.302 84.6411 72.2983ZM90 49.7009C90 44.7154 89.2199 39.821 87.6795 35.1307C89.0056 31.5736 88.7139 27.613 86.824 24.2708C84.8653 20.8068 81.4035 18.5021 77.5556 18.0155C71.2186 11.2354 62.9387 6.55116 53.9915 4.68561C51.6382 1.72698 48.1304 0 44.3448 0C40.4444 0 36.7683 1.897 34.43 5.03569C25.5569 7.23056 17.4448 12.2201 11.3425 19.2378C7.64602 19.8329 4.41822 22.0732 2.52048 25.4301C0.568335 28.8828 0.340874 33.0858 1.83809 36.7251C0.618161 40.9429 0 45.3018 0 49.7009C0 54.6864 0.780082 59.5809 2.32056 64.2718C0.995093 67.8281 1.28613 71.7889 3.176 75.1311C5.13471 78.5951 8.59719 80.8997 12.4445 81.3871C18.7814 88.1671 27.0613 92.8506 36.0085 94.717C38.3619 97.6756 41.8695 99.4019 45.6558 99.4019C49.5549 99.4019 53.2317 97.5049 55.57 94.3661C64.4431 92.1718 72.5552 87.1819 78.6575 80.1641C82.354 79.5691 85.5818 77.3285 87.4795 73.9717C89.4317 70.519 89.6591 66.316 88.1619 62.6768C89.3825 58.459 90 54.1007 90 49.7009Z" fill="#FC7D34"/>
<path d="M25.7461 72.5194C25.8014 72.3232 25.852 72.1257 25.8979 71.9269C27.2304 70.3193 28.874 68.7042 34.3726 65.5312C35.4346 64.9183 36.3852 64.3816 37.2414 63.9105C37.2623 64.8854 37.2717 65.9729 37.2717 67.1946C37.2717 73.6858 36.6787 75.8196 35.7544 78.254C32.0888 77.0136 28.6925 75.0684 25.7461 72.5194ZM32.6859 62.6119C26.2764 66.31 24.5998 68.1519 22.7465 70.4576C22.5899 71.4931 22.2607 72.4957 21.7742 73.4275C26.1145 77.7618 31.6374 80.9089 37.8149 82.3403C39.3842 77.8875 40.6452 76.632 40.6452 67.1946C40.6452 63.0994 40.5386 60.5464 40.3051 58.6025C38.5138 59.3704 36.2449 60.559 32.6859 62.6119Z" fill="#FC7D34"/>
<path d="M63.834 51.18C62.8073 50.5813 61.898 50.0398 61.0892 49.5458C61.8961 49.0525 62.8027 48.513 63.8262 47.9163C69.2702 44.7421 71.3438 44.2033 73.8342 43.7956C74.2106 45.6873 74.3998 47.6152 74.3998 49.555C74.3998 51.402 74.2269 53.2436 73.8838 55.0537C73.6842 55.1044 73.4866 55.1604 73.2902 55.2209C71.2994 54.8798 69.1508 54.279 63.834 51.18ZM62.1955 45.0642C58.7644 47.0646 56.6765 48.4017 55.1612 49.5491C56.6706 50.688 58.7625 52.0257 62.2033 54.032C68.4007 57.6449 70.7541 58.1618 73.5824 58.6025C74.5335 58.2264 75.5406 58.0157 76.5647 57.9742C77.277 55.2876 77.6612 52.4664 77.6612 49.555C77.6612 46.2525 77.1687 43.0638 76.2601 40.0576C71.7658 40.9073 70.1064 40.4522 62.1955 45.0642Z" fill="#FC7D34"/>
<path d="M54.4682 77.7815C54.3229 77.6348 54.1736 77.4913 54.0208 77.3514C53.2962 75.434 52.7189 73.2472 52.7189 67.0296C52.7189 65.8283 52.729 64.7593 52.7485 63.8017C53.601 64.2624 54.5463 64.7869 55.6019 65.3857C61.201 68.5599 62.7545 70.1086 64.3941 72.0811C61.4856 74.5971 58.1175 76.5327 54.4682 77.7815ZM57.2839 62.5238C53.745 60.5172 51.485 59.3567 49.6886 58.6028C49.4592 60.4986 49.3549 63.0041 49.3549 67.0296C49.3549 74.2781 50.1112 76.6021 51.1802 79.3046C52.0011 79.948 52.7068 80.7239 53.2706 81.5986C59.3602 79.9924 64.7649 76.7322 68.9517 72.3343C65.8958 68.8302 65.4303 67.1432 57.2839 62.5238Z" fill="#FC7D34"/>
<path d="M16.1659 55.6065C15.7902 53.7142 15.6003 51.7863 15.6003 49.8465C15.6003 48.0003 15.7732 46.158 16.1163 44.348C16.3153 44.2973 16.5129 44.2419 16.7093 44.1813C18.7001 44.5225 20.8488 45.1226 26.1657 48.2223C27.1925 48.821 28.1024 49.3618 28.9107 49.8558C28.1044 50.3491 27.197 50.8892 26.1742 51.4853C20.7294 54.6594 18.6564 55.199 16.1659 55.6065ZM34.8388 49.8531C33.3294 48.7136 31.2374 47.3759 27.7965 45.3702C21.5989 41.7568 19.2454 41.2397 16.417 40.7991C15.4666 41.1752 14.4594 41.3866 13.436 41.4274C12.723 44.1148 12.3388 46.9359 12.3388 49.8465C12.3388 53.1498 12.8313 56.3378 13.7406 59.3445C18.2337 58.4941 19.8938 58.9493 27.805 54.3381C31.2361 52.3376 33.3235 50.9999 34.8388 49.8531Z" fill="#FC7D34"/>
<path d="M64.2536 27.3175C64.1983 27.5076 64.1477 27.6989 64.1018 27.891C62.7694 29.448 61.126 31.0142 55.627 34.0872C54.5651 34.6808 53.6146 35.2014 52.7585 35.6573C52.7382 34.7135 52.7281 33.6594 52.7281 32.4766C52.7281 26.1883 53.3211 24.1205 54.246 21.7621C57.9107 22.9638 61.3075 24.8481 64.2536 27.3175ZM57.3136 36.9152C63.7234 33.3328 65.3998 31.5485 67.2531 29.3141C67.4096 28.3116 67.7388 27.3404 68.2259 26.4378C63.8853 22.2388 58.3627 19.1901 52.185 17.8035C50.6165 22.1174 49.3549 23.3335 49.3549 32.4766C49.3549 36.4436 49.4615 38.917 49.6956 40.7993C51.4868 40.0554 53.7549 38.9046 57.3136 36.9152Z" fill="#FC7D34"/>
<path d="M35.5324 21.6206C35.6777 21.7673 35.8264 21.9106 35.9792 22.0501C36.7038 23.9682 37.2811 26.1533 37.2811 32.3729C37.2811 33.5734 37.2717 34.6432 37.2515 35.5999C36.399 35.14 35.4537 34.6154 34.3987 34.0168C28.7994 30.8426 27.2459 29.2931 25.6062 27.3215C28.5148 24.8047 31.8837 22.8694 35.5324 21.6206ZM32.7166 36.8778C36.255 38.8845 38.5151 40.0454 40.3115 40.7993C40.5409 38.9036 40.6452 36.3974 40.6452 32.3729C40.6452 25.1238 39.889 22.7993 38.8198 20.0976C37.999 19.454 37.2939 18.6783 36.7307 17.8035C30.6403 19.4104 25.2355 22.6698 21.0485 27.0684C24.1044 30.5723 24.57 32.2592 32.7166 36.8778Z" fill="#FC7D34"/>
<path d="M45.0006 47.9276C45.9568 47.9276 46.735 48.7229 46.735 49.7008C46.735 50.6787 45.9568 51.4746 45.0006 51.4746C44.0438 51.4746 43.2649 50.6787 43.2649 49.7008C43.2649 48.7229 44.0438 47.9276 45.0006 47.9276ZM45.0006 44.5085C42.1983 44.5085 39.9193 46.8376 39.9193 49.7008C39.9193 52.5639 42.1983 54.8938 45.0006 54.8938C47.8016 54.8938 50.0806 52.5639 50.0806 49.7008C50.0806 46.8376 47.8016 44.5085 45.0006 44.5085Z" fill="#FC7D34"/>
</svg>
