<svg width="102" height="90" viewBox="0 0 102 90" fill="none" xmlns="http://www.w3.org/2000/svg">
<path d="M37.4198 37.3475H63.4911V40.9721H37.4198V37.3475ZM60.0103 32.7856V34.4726H40.9006V32.7856H60.0103ZM54.0388 25.6968V29.9108H46.8722V25.6968H54.0388ZM42.0348 18.9081H58.8755V22.8219H42.0348V18.9081ZM2.89488 2.87488H33.2263L41.9387 11.5271H58.9722L67.6847 2.87488H98.0155V6.63692H69.2542L60.5418 15.2891H60.4723H40.438H40.3691L31.6567 6.63692H2.89488V2.87488ZM32.3891 61.7379H33.891L34.4867 61.1468C36.9259 63.1823 40.0698 64.411 43.4973 64.411H52.1617L57.4293 69.6421L46.3783 80.6166C44.2894 82.69 41.4576 83.8555 38.5042 83.8555H32.3891V61.7379ZM14.3725 86.7999V57.8017H29.4942V86.7999H14.3725ZM67.3598 75.4384L53.3608 61.5361H43.4973C37.348 61.5361 32.3619 56.585 32.3619 50.4776C32.3619 47.574 33.5001 44.9429 35.3436 42.9702C35.8699 43.5095 36.604 43.847 37.4198 43.847H63.4911C64.4592 43.847 65.3103 43.3709 65.836 42.6465C65.84 42.6505 65.8447 42.6539 65.8481 42.6574L79.8472 56.5597H81.0891V78.6773H75.2345C72.2806 78.6773 69.4488 77.5118 67.3598 75.4384ZM99.1051 81.881H83.984V52.8822H99.1051V81.881ZM99.1051 50.0073H83.984C82.3849 50.0073 81.0891 51.2947 81.0891 52.8822V53.6848H81.0463L67.8954 40.6248C67.6152 40.3466 67.3378 40.1103 67.1149 39.9199C66.8938 39.7308 66.6454 39.5887 66.386 39.476V37.3475C66.386 35.76 65.0902 34.4726 63.4911 34.4726H62.9052V32.7856C62.9052 31.1976 61.6094 29.9108 60.0103 29.9108H56.9336V25.6968H58.8755C60.4747 25.6968 61.7704 24.41 61.7704 22.8219V18.9081C61.7704 18.574 61.7021 18.2589 61.5967 17.9611C61.9644 17.8179 62.3042 17.6046 62.5885 17.3217L70.4533 9.5118H98.0155C99.6146 9.5118 100.91 8.22443 100.91 6.63692V2.87488C100.91 1.28737 99.6146 0 98.0155 0H67.6847C66.9169 0 66.1805 0.303009 65.638 0.842331L57.7732 8.65222H43.1378L35.273 0.842331C34.7299 0.303009 33.994 0 33.2263 0H2.89488C1.29633 0 0 1.28737 0 2.87488V6.63692C0 8.22443 1.29633 9.5118 2.89488 9.5118H30.4576L38.3224 17.3217C38.6067 17.6046 38.9466 17.8179 39.3142 17.9611C39.2088 18.2589 39.14 18.574 39.14 18.9081V22.8219C39.14 24.41 40.4363 25.6968 42.0348 25.6968H43.9773V29.9108H40.9006C39.3015 29.9108 38.0057 31.1976 38.0057 32.7856V34.4726H37.4198C35.8207 34.4726 34.5249 35.76 34.5249 37.3475V39.9768C34.2059 40.1148 33.9072 40.3057 33.6501 40.5576C30.9526 43.1984 29.467 46.7213 29.467 50.4776C29.467 52.0737 29.7426 53.6066 30.2422 55.036C30.002 54.9722 29.7547 54.9268 29.4942 54.9268H14.3725C12.7739 54.9268 11.4776 56.2141 11.4776 57.8017V86.7999C11.4776 88.388 12.7739 89.6748 14.3725 89.6748H29.4942C31.0928 89.6748 32.3891 88.388 32.3891 86.7999V86.7304H38.5042C42.2508 86.7304 45.7745 85.2814 48.425 82.6503L59.4765 71.6752L65.3132 77.4715C67.9643 80.1032 71.4874 81.5521 75.2345 81.5521H81.0891V81.881C81.0891 83.4685 82.3849 84.7559 83.984 84.7559H99.1051C100.704 84.7559 102 83.4685 102 81.881V52.8822C102 51.2947 100.704 50.0073 99.1051 50.0073Z" fill="#FC7D34"/>
</svg>
