<svg width="115" height="107" viewBox="0 0 115 107" fill="none" xmlns="http://www.w3.org/2000/svg">
<path d="M39.9107 71.8012L40.1504 72.0422C40.8432 72.7387 41.7509 73.0866 42.6579 73.0866C43.5656 73.0866 44.4726 72.7387 45.1647 72.0422L48.6211 68.5682L68.5372 88.5904C71.1426 91.2103 74.6202 92.6533 78.3297 92.6533C82.0378 92.6533 85.5161 91.2103 88.1215 88.5904L86.6167 87.0783C84.4134 89.294 81.4705 90.5145 78.3297 90.5145C75.1882 90.5145 72.2453 89.294 70.0413 87.0783L50.1251 67.0561L66.7005 50.3917L86.6167 70.4146L88.1215 68.9025L84.7701 65.5333H98.9635V99.6106H39.9107V71.8012ZM42.6579 69.522L37.4138 64.25L63.9094 37.6134L69.1535 42.8854L42.6579 69.522ZM40.0206 52.1733L51.8966 40.2341L54.0928 42.442L42.2168 54.3804L40.0206 52.1733ZM46.0852 37.376L47.9048 39.206L38.998 48.1603L37.1784 46.3309L46.0852 37.376ZM28.9389 36.9383L36.743 29.0934L40.0391 28.1601L45.1385 33.2867L33.1101 45.3792L28.0106 40.2519L28.9389 36.9383ZM30.2522 26.1661L32.4463 28.3712L28.2213 32.6194L26.0272 30.413L30.2522 26.1661ZM6.10533 44.4146C5.50115 44.4146 4.89623 44.1843 4.43813 43.7231L4.23321 43.5177C3.3163 42.5959 3.3163 41.0867 4.23321 40.1642L39.9511 4.25612C40.4099 3.79486 41.0148 3.56458 41.619 3.56458C42.2239 3.56458 42.8281 3.79486 43.2869 4.25612L43.4911 4.46143C44.4087 5.38394 44.4087 6.89318 43.4911 7.81499L7.77323 43.7231C7.31513 44.1843 6.71023 44.4146 6.10533 44.4146ZM27.4199 61.7085H34.9276L34.907 61.7299C34.2418 62.3979 33.8681 63.3047 33.8681 64.25C33.8681 65.1954 34.2418 66.1022 34.907 66.7709L36.365 68.2366V103.435H27.4199V61.7085ZM111.454 103.435H102.509V61.7085H111.454V103.435ZM111.454 58.1439H102.509C100.551 58.1439 98.9635 59.7401 98.9635 61.7085V61.9687H84.7701C84.3177 61.9687 83.8802 62.055 83.4752 62.2147L69.2081 47.8715L71.661 45.4055C73.0452 44.0139 73.0452 41.7569 71.661 40.3645L66.4169 35.0932C65.7517 34.4245 64.8497 34.0488 63.9094 34.0488C62.9691 34.0488 62.067 34.4245 61.4026 35.0932L56.5996 39.9211L54.4034 37.7132C53.7113 37.0174 52.8036 36.6695 51.8966 36.6695C51.4675 36.6695 51.0406 36.7536 50.6343 36.909L48.4041 34.6669C48.9451 33.3716 48.6948 31.821 47.646 30.7659L42.5459 25.6393C41.8715 24.962 40.9659 24.5956 40.0383 24.5956C39.7178 24.5956 39.3944 24.6391 39.0775 24.7289L35.7814 25.6621C35.5296 25.7334 35.2906 25.8367 35.0623 25.9608L32.759 23.6452L45.9987 10.3358C48.3005 8.021 48.3005 4.25539 45.9987 1.94127L45.7944 1.73596C44.6811 0.616684 43.1983 0 41.619 0C40.0405 0 38.5577 0.615982 37.4443 1.73526L1.7264 37.6441C-0.575466 39.9582 -0.575466 43.7238 1.7264 46.0386L1.93135 46.2439C3.04399 47.3632 4.52679 47.9792 6.10533 47.9792C7.68459 47.9792 9.16739 47.3632 10.2807 46.2439L23.5196 32.9338L25.8229 35.2494C25.7003 35.4789 25.5967 35.7192 25.5258 35.9723L24.5976 39.2859C24.2501 40.5271 24.5961 41.861 25.5031 42.7728L30.6032 47.8994C31.2684 48.5681 32.1697 48.9438 33.1101 48.9438C33.5873 48.9438 34.0532 48.8454 34.4837 48.6636L36.7132 50.9043C36.2317 52.1768 36.4941 53.669 37.5131 54.6934L39.7093 56.9013L38.0364 58.5831C37.5365 58.3122 36.9734 58.1439 36.365 58.1439H27.4199C25.462 58.1439 23.8742 59.7401 23.8742 61.7085V103.435C23.8742 105.404 25.462 107 27.4199 107H36.365C38.3236 107 39.9107 105.404 39.9107 103.435V103.175H98.9635V103.435C98.9635 105.404 100.551 107 102.509 107H111.454C113.413 107 115 105.404 115 103.435V61.7085C115 59.7401 113.413 58.1439 111.454 58.1439Z" fill="#FC7D34"/>
</svg>
