<svg xmlns="http://www.w3.org/2000/svg" viewBox="0 0 729.3 153.86"><defs><style>.cls-1{fill:#ededee;}.cls-2{fill:#e1251b;}.cls-3{fill:#040404;}</style></defs><title>Asset 1</title><g id="Layer_2" data-name="Layer 2"><g id="Layer_1-2" data-name="Layer 1"><path class="cls-1" d="M144,153.86H16.64A16.64,16.64,0,0,1,0,137.22V16.64A16.64,16.64,0,0,1,16.64,0H144a16.64,16.64,0,0,1,16.65,16.64V137.22A16.64,16.64,0,0,1,144,153.86"/><rect class="cls-2" x="20.8" y="22.93" width="30.53" height="79.09"/><polygon class="cls-3" points="103.34 65.8 125.18 102.01 146.08 65.8 103.34 65.8"/><polygon class="cls-3" points="110.82 126.89 120.36 110.37 93.48 65.8 62.51 65.8 97.78 126.89 110.82 126.89"/><path class="cls-2" d="M57.52,41.83a17,17,0,1,1,17,17,17,17,0,0,1-17-17"/><path class="cls-2" d="M213.78,71.38h17.7q6.22,0,11.17-7a22.61,22.61,0,0,0,4.51-13,21.94,21.94,0,0,0-4.57-13.81A15.3,15.3,0,0,0,230,31.28l-16.18.06Zm0,44.17h7v4.18h-27.6v-4.18l6.6.06V31.34h-6.6V27.09h38.64q12,0,20.18,6a21.33,21.33,0,0,1,9.14,18.21,21.89,21.89,0,0,1-6.35,15.35A27.38,27.38,0,0,1,240.24,75h.13q5.07,18.21,24.43,40.55h6.34v4.18H251.92a197.28,197.28,0,0,1-25.26-44H213.78Z"/><path class="cls-2" d="M316.93,82.49q-.71-22.08-15.49-22.08a12.75,12.75,0,0,0-12.05,7.36q-3,5.7-3.05,14.72Zm-30.71,3.8c-.05,2.58-.07,4.13-.07,4.64q0,25.82,18.91,25.82a23.16,23.16,0,0,0,12.28-3.46,20.42,20.42,0,0,0,8.28-9.35L329,106a22.26,22.26,0,0,1-10.78,11.61,33.12,33.12,0,0,1-15.67,3.68q-14.65,0-22.21-10-6.74-8.88-6.73-24,0-13.9,6.86-22.09,7.35-8.8,21-8.81,13.2,0,20.56,8.56,6.78,7.86,7.61,21.38Z"/><path class="cls-2" d="M379.75,67.51q-7.61-7.29-14.38-7.3a7.57,7.57,0,0,0-4.43,1.53q-9.81,7-9.81,27.41,0,22.72,12,27.67a8.85,8.85,0,0,0,3.35.69,15.07,15.07,0,0,0,7.28-2.15,18.92,18.92,0,0,0,6-5Zm-6.67-40.42h19.29v88.84H399v3.8H379.81v-3.87q-5.9,5.2-15.27,5.21-26,0-26-32.24t25.34-32.36q10,0,15.91,5.27l-.07-30.84h-6.6Z"/><polygon class="cls-2" points="467.7 96.76 468.33 96.76 488.89 31.28 483.5 31.28 483.5 27.09 500.82 27.09 500.82 31.22 494.16 31.22 466.49 119.73 461.16 119.73 432.67 31.28 426.13 31.28 426.13 27.09 451.96 27.09 451.96 31.28 446.76 31.28 467.7 96.76"/><path class="cls-2" d="M514.44,117.58q5.38,0,11.27-5.46a28,28,0,0,0,7.41-10.53V84.65q-3.18,1.83-11.71,4.18-7.54,2.16-10.58,4.63-4.62,3.81-4.62,11.36a18.5,18.5,0,0,0,1.71,8.32q2.16,4.44,6.52,4.44M499,59.64q14.08-3.36,19.42-3.36,14.52,0,20.33,4.32,6.88,5.13,6.89,19.1v27.47c0,5.84.48,8.76,1.46,8.76h6.28v3.8H535.28q-2.16-3.3-2.16-10.66a24.84,24.84,0,0,1-9.38,9,25.5,25.5,0,0,1-12.54,3.3q-8.06,0-12.67-3.93c-3.3-2.8-4.95-6.83-4.95-12.12q0-9.9,7.67-14.09,3.67-2,16.34-4.57,10.9-2.22,14.89-6.22a10.6,10.6,0,0,0,.57-3.8Q533.05,60,515.79,60q-11.47,0-12.94,13.38H499Z"/><polygon class="cls-2" points="561.1 115.93 567.7 115.93 567.7 30.9 561.1 30.9 561.1 27.09 580.33 27.09 580.33 115.93 586.92 115.93 586.92 119.73 561.1 119.73 561.1 115.93"/><polygon class="cls-2" points="590.81 61.74 590.81 57.93 615.3 57.93 615.3 61.74 610.17 61.74 626.35 103.61 642.52 61.74 637.51 61.74 637.51 57.93 653.18 57.93 653.18 61.74 646.59 61.74 624.13 119.73 619.94 119.73 597.48 61.67 597.41 61.74 590.81 61.74"/><path class="cls-2" d="M700.05,82.49q-.7-22.08-15.48-22.08a12.76,12.76,0,0,0-12.06,7.36q-3,5.7-3,14.72Zm-30.71,3.8c-.05,2.58-.07,4.13-.07,4.64q0,25.82,18.91,25.82a23.13,23.13,0,0,0,12.28-3.46,20.31,20.31,0,0,0,8.28-9.35l3.43,2.09a22.28,22.28,0,0,1-10.79,11.61,33.12,33.12,0,0,1-15.67,3.68q-14.65,0-22.21-10-6.72-8.88-6.73-24,0-13.9,6.86-22.09,7.35-8.8,21-8.81,13.2,0,20.56,8.56,6.78,7.86,7.61,21.38Z"/><path class="cls-2" d="M720.62,45.27h.87c.77,0,1.2.33,1.2,1s-.43,1-1.2,1h-.87Zm4.09.79a2.82,2.82,0,0,0-3.11-2.65h-3V51.5h2V48.94h1l1.29,2.56h2.19l-1.66-3a2.65,2.65,0,0,0,1.29-2.4m-3.33,8.62a7.23,7.23,0,1,1,7.16-7.22,7.2,7.2,0,0,1-7.16,7.22m0-15.15a7.93,7.93,0,1,0,7.92,7.93,7.93,7.93,0,0,0-7.92-7.93"/></g></g></svg>