<svg width="223" height="47" viewBox="0 0 223 47" fill="none" xmlns="http://www.w3.org/2000/svg">
<path d="M44.0313 47H5.08806C3.73862 47 2.44445 46.4645 1.49026 45.5112C0.536062 44.5579 0 43.265 0 41.9169L0 5.08306C0 3.73495 0.536062 2.44205 1.49026 1.4888C2.44445 0.535536 3.73862 9.1797e-07 5.08806 9.1797e-07H44.0313C44.6997 -0.000400389 45.3617 0.130781 45.9793 0.386049C46.597 0.641317 47.1582 1.01567 47.631 1.48772C48.1038 1.95976 48.4789 2.52025 48.7348 3.13715C48.9907 3.75406 49.1224 4.41529 49.1224 5.08306V41.9169C49.1224 42.5847 48.9907 43.2459 48.7348 43.8628C48.4789 44.4798 48.1038 45.0402 47.631 45.5123C47.1582 45.9843 46.597 46.3587 45.9793 46.6139C45.3617 46.8692 44.6997 47.0004 44.0313 47Z" fill="#EDEDEE"/>
<path d="M15.6953 7.00452H6.36011V31.1643H15.6953V7.00452Z" fill="#E1251B"/>
<path d="M31.5984 20.1001L38.2765 31.1613L44.6671 20.1001H31.5984Z" fill="#040404"/>
<path d="M33.8856 38.7614L36.8027 33.715L28.5836 20.1001H19.1138L29.8984 38.7614H33.8856Z" fill="#040404"/>
<path d="M17.5881 12.7779C17.5881 11.7508 17.893 10.7468 18.4642 9.89278C19.0354 9.03879 19.8472 8.37319 20.797 7.98014C21.7469 7.58709 22.792 7.48425 23.8004 7.68462C24.8087 7.885 25.7349 8.37959 26.4619 9.10584C27.1889 9.8321 27.684 10.7574 27.8845 11.7648C28.0851 12.7721 27.9822 13.8163 27.5887 14.7652C27.1953 15.7141 26.529 16.5251 25.6742 17.0957C24.8194 17.6663 23.8144 17.9709 22.7863 17.9709C21.4076 17.9709 20.0855 17.4238 19.1106 16.4499C18.1358 15.476 17.5881 14.1551 17.5881 12.7779Z" fill="#E1251B"/>
<path d="M65.368 21.8045H70.7802C72.0481 21.8045 73.1866 21.0918 74.1957 19.6662C75.0572 18.5178 75.5392 17.1298 75.5747 15.6951C75.6027 14.171 75.1098 12.683 74.1773 11.4765C73.7364 10.8718 73.1566 10.3817 72.4867 10.0473C71.8169 9.71298 71.0764 9.54417 70.3276 9.55508L65.3802 9.5734L65.368 21.8045ZM65.368 35.2972H67.5084V36.5741H59.0691V35.2972L61.0872 35.3156V9.5734H59.0691V8.27515H70.8841C73.3303 8.27515 75.3872 8.88609 77.0546 10.108C77.948 10.7287 78.6717 11.5628 79.1598 12.5344C79.648 13.506 79.885 14.5841 79.8494 15.6706C79.844 17.4278 79.1465 19.1122 77.9077 20.3596C76.7284 21.654 75.1724 22.5461 73.4588 22.9103H73.4985C74.532 26.6188 77.022 30.7477 80.9685 35.2972H82.9071V36.5741H77.0302C73.8872 32.4446 71.2912 27.927 69.3064 23.1333H65.368V35.2972Z" fill="#E1251B"/>
<path d="M96.9087 25.1985C96.7639 20.702 95.1851 18.4537 92.1723 18.4537C91.4047 18.4242 90.6455 18.6218 89.99 19.0218C89.3345 19.4218 88.8119 20.0063 88.4877 20.702C87.8762 21.8628 87.5653 23.3616 87.5551 25.1985H96.9087ZM87.5184 26.3593C87.5031 27.1475 87.497 27.6209 87.497 27.7767C87.497 33.0349 89.4244 35.664 93.2792 35.664C94.6051 35.6699 95.9061 35.3036 97.034 34.6071C98.1558 33.9426 99.0412 32.9438 99.5658 31.7509L100.599 32.3802C99.9731 33.9262 98.8 35.1884 97.3031 35.9267C95.8228 36.6894 94.177 37.0755 92.5117 37.0509C89.5253 37.0509 87.2615 36.0326 85.7205 33.9961C84.3465 32.1877 83.6606 29.744 83.6626 26.6648C83.6626 23.8341 84.3618 21.5848 85.7602 19.9169C87.2585 18.1248 89.3989 17.2277 92.1814 17.2257C94.8722 17.2257 96.9678 18.0973 98.4681 19.8406C99.8502 21.4412 100.626 23.6182 100.795 26.3716L87.5184 26.3593Z" fill="#E1251B"/>
<path d="M116.117 20.6223C114.566 19.1377 113.1 18.3944 111.72 18.3924C111.231 18.4011 110.756 18.5647 110.366 18.8598C108.366 20.2853 107.366 23.0763 107.366 27.2328C107.366 31.8597 108.589 34.6771 111.035 35.6852C111.36 35.8213 111.708 35.8929 112.06 35.896C112.846 35.8704 113.612 35.6443 114.286 35.2392C114.997 34.8631 115.622 34.3429 116.12 33.7118L116.117 20.6223ZM114.078 8.27515H119.976V35.4133H122.003V36.5741H116.136V35.3919C114.933 36.4509 113.377 36.9814 111.466 36.9835C106.166 36.9835 103.516 33.7006 103.516 27.135C103.516 20.5694 106.099 17.2744 111.265 17.2499C113.303 17.2499 114.925 17.7865 116.129 18.8598L116.108 9.439H114.09L114.078 8.27515Z" fill="#E1251B"/>
<path d="M143.01 29.5574H143.203L149.489 9.55508H147.841V8.27515H153.137V9.53675H151.101L142.64 36.5741H141.01L132.299 9.55508H130.299V8.27515H138.197V9.55508H136.607L143.01 29.5574Z" fill="#E1251B"/>
<path d="M157.302 35.9175C158.398 35.9175 159.547 35.3615 160.748 34.2496C161.743 33.3678 162.518 32.2665 163.013 31.033V25.8583C162.365 26.231 161.172 26.6566 159.433 27.1351C157.896 27.575 156.817 28.0465 156.198 28.5495C155.256 29.3254 154.785 30.4821 154.785 32.0197C154.76 32.8959 154.939 33.766 155.308 34.5612C155.748 35.4654 156.413 35.9175 157.302 35.9175ZM152.58 18.2184C155.451 17.5341 157.43 17.192 158.518 17.192C161.478 17.192 163.55 17.6319 164.735 18.5117C166.137 19.5564 166.84 21.5012 166.842 24.3462V32.7375C166.842 34.5215 166.988 35.4135 167.288 35.4135H169.208V36.5743H163.674C163.234 35.9022 163.013 34.8168 163.013 33.3179C162.319 34.4724 161.329 35.4213 160.145 36.0672C158.975 36.7276 157.655 37.0749 156.311 37.0752C154.668 37.0752 153.376 36.6751 152.437 35.8747C151.428 35.0194 150.923 33.7883 150.923 32.1724C150.923 30.1563 151.705 28.7216 153.268 27.8683C154.016 27.461 155.682 26.9957 158.265 26.4723C160.487 26.0202 162.004 25.3868 162.818 24.5722C162.946 24.1991 163.005 23.8057 162.992 23.4114C162.992 20.0227 161.233 18.3284 157.714 18.3284C155.376 18.3284 154.057 19.6908 153.758 22.4156H152.58V18.2184Z" fill="#E1251B"/>
<path d="M171.569 35.4133H173.587V9.439H171.569V8.27515H177.449V35.4133H179.464V36.5741H171.569V35.4133Z" fill="#E1251B"/>
<path d="M180.654 18.8599V17.696H188.142V18.8599H186.573L191.521 31.65L196.465 18.8599H194.933V17.696H199.725V18.8599H197.71L190.842 36.5742H189.561L182.693 18.8385L182.672 18.8599H180.654Z" fill="#E1251B"/>
<path d="M214.056 25.1985C213.913 20.702 212.336 18.4537 209.323 18.4537C208.555 18.4239 207.795 18.6214 207.139 19.0214C206.483 19.4214 205.96 20.006 205.635 20.702C205.024 21.8628 204.718 23.3616 204.718 25.1985H214.056ZM204.666 26.3593C204.651 27.1474 204.644 27.6209 204.644 27.7767C204.644 33.0349 206.572 35.664 210.427 35.664C211.753 35.6703 213.054 35.3041 214.181 34.6071C215.305 33.9443 216.191 32.945 216.713 31.7509L217.762 32.3894C217.135 33.9356 215.961 35.1977 214.463 35.9359C212.982 36.6985 211.337 37.0846 209.671 37.06C206.685 37.06 204.421 36.0418 202.88 34.0053C201.51 32.1969 200.824 29.7531 200.822 26.674C200.822 23.8433 201.521 21.594 202.92 19.9261C204.418 18.134 206.559 17.2369 209.341 17.2349C212.032 17.2349 214.127 18.1065 215.628 19.8497C217.01 21.4504 217.786 23.6274 217.955 26.3807L204.666 26.3593Z" fill="#E1251B"/>
<path d="M220.346 13.8287H220.612C220.847 13.8287 220.979 13.9295 220.979 14.1342C220.979 14.3389 220.847 14.4397 220.612 14.4397H220.346V13.8287ZM221.596 14.07C221.59 13.9535 221.56 13.8395 221.508 13.7349C221.456 13.6303 221.384 13.5373 221.295 13.4616C221.206 13.3859 221.102 13.329 220.991 13.2945C220.879 13.2599 220.762 13.2484 220.645 13.2605H219.728V15.7318H220.34V14.9498H220.645L221.04 15.7318H221.71L221.202 14.8154C221.328 14.7403 221.431 14.6325 221.501 14.5034C221.57 14.3742 221.603 14.2287 221.596 14.0823V14.07ZM220.578 16.7154C220.14 16.7197 219.71 16.5937 219.344 16.3535C218.977 16.1132 218.691 15.7696 218.52 15.3663C218.35 14.9629 218.303 14.518 218.386 14.0881C218.469 13.6582 218.678 13.2627 218.987 12.9518C219.296 12.6409 219.69 12.4287 220.119 12.3421C220.549 12.2554 220.995 12.2983 221.4 12.4653C221.805 12.6323 222.151 12.9158 222.395 13.2799C222.638 13.6439 222.768 14.0721 222.768 14.5099C222.769 15.0922 222.54 15.6513 222.129 16.0648C221.719 16.4782 221.161 16.7122 220.578 16.7154ZM220.578 12.0875C220.099 12.0869 219.629 12.2285 219.23 12.4943C218.831 12.7601 218.52 13.1382 218.336 13.5808C218.152 14.0234 218.103 14.5105 218.197 14.9806C218.29 15.4507 218.521 15.8826 218.86 16.2217C219.199 16.5608 219.631 16.7918 220.101 16.8855C220.571 16.9793 221.059 16.9315 221.502 16.7482C221.946 16.565 222.325 16.2545 222.591 15.8561C222.858 15.4576 223 14.9892 223 14.5099C223 13.868 222.745 13.2523 222.291 12.7981C221.837 12.3439 221.221 12.0883 220.578 12.0875Z" fill="#E1251B"/>
</svg>
