<svg width="114" height="50" viewBox="0 0 114 50" fill="none" xmlns="http://www.w3.org/2000/svg">
<path d="M2.37912 6.84998C0.991295 11.4 0.0991211 17.85 0.0991211 25C0.0991211 32.15 0.991295 38.6 2.37912 43.15H30.0365V6.84998H2.37912Z" fill="url(#paint0_linear)"/>
<path d="M30.0365 6.75H2.28V6.8C0.793043 11.55 0 18.05 0 25C0 31.95 0.793043 38.45 2.28 43.2V43.25H30.1357V6.75H30.0365ZM29.9374 6.95C29.9374 7.15 29.9374 42.85 29.9374 43.05C29.7391 43.05 2.57739 43.05 2.4287 43.05C1.04087 38.4 0.198261 31.8 0.198261 25C0.198261 18.2 0.991304 11.6 2.4287 6.95C2.57739 6.95 29.7391 6.95 29.9374 6.95Z" fill="url(#paint1_linear)"/>
<path d="M26.7156 49.9C30.6575 49.9 33.853 38.7519 33.853 25C33.853 11.2481 30.6575 0.0999756 26.7156 0.0999756C22.7738 0.0999756 19.5782 11.2481 19.5782 25C19.5782 38.7519 22.7738 49.9 26.7156 49.9Z" fill="url(#paint2_linear)"/>
<path d="M26.914 41.35C28.529 41.35 29.8383 34.0299 29.8383 25C29.8383 15.9702 28.529 8.65002 26.914 8.65002C25.2989 8.65002 23.9896 15.9702 23.9896 25C23.9896 34.0299 25.2989 41.35 26.914 41.35Z" fill="url(#paint3_linear)"/>
<path d="M26.914 41.4C26.1209 41.4 25.3774 39.7 24.8322 36.6C24.287 33.5 23.9896 29.35 23.9896 25C23.9896 20.65 24.287 16.5 24.8322 13.45C25.3774 10.35 26.1209 8.65002 26.914 8.65002C27.707 8.65002 28.4505 10.35 28.9957 13.45C29.5409 16.55 29.8383 20.65 29.8383 25C29.8383 29.35 29.5409 33.5 28.9957 36.55C28.4505 39.65 27.707 41.4 26.914 41.4ZM26.914 8.65002C25.3279 8.65002 24.0392 15.95 24.0392 25C24.0392 34.05 25.3279 41.35 26.914 41.35C28.5001 41.35 29.7888 34.05 29.7888 25C29.7888 15.95 28.5001 8.65002 26.914 8.65002Z" fill="white"/>
<path d="M21.9574 24.2001C22.4227 24.2001 22.8 23.1704 22.8 21.9001C22.8 20.6298 22.4227 19.6001 21.9574 19.6001C21.492 19.6001 21.1147 20.6298 21.1147 21.9001C21.1147 23.1704 21.492 24.2001 21.9574 24.2001Z" fill="url(#paint4_linear)"/>
<path d="M21.9574 24.2001C21.4617 24.2001 21.0652 23.1501 21.0652 21.9001C21.0652 20.6501 21.4617 19.6001 21.9574 19.6001C22.453 19.6001 22.8495 20.6501 22.8495 21.9001C22.8495 23.1501 22.453 24.2001 21.9574 24.2001ZM21.9574 19.6501C21.5113 19.6501 21.1147 20.6501 21.1147 21.9001C21.1147 23.1501 21.4617 24.1501 21.9574 24.1501C22.4034 24.1501 22.8 23.1501 22.8 21.9001C22.8 20.6501 22.4034 19.6501 21.9574 19.6501Z" fill="white"/>
<path d="M23.2461 12.85C23.7114 12.85 24.0887 11.8203 24.0887 10.55C24.0887 9.27975 23.7114 8.25 23.2461 8.25C22.7807 8.25 22.4034 9.27975 22.4034 10.55C22.4034 11.8203 22.7807 12.85 23.2461 12.85Z" fill="url(#paint5_linear)"/>
<path d="M23.2461 12.85C22.7504 12.85 22.3539 11.8 22.3539 10.55C22.3539 9.3 22.7504 8.25 23.2461 8.25C23.7417 8.25 24.1382 9.3 24.1382 10.55C24.1382 11.8 23.7417 12.85 23.2461 12.85ZM23.2461 8.3C22.8 8.3 22.4034 9.3 22.4034 10.55C22.4034 11.8 22.7504 12.8 23.2461 12.8C23.7417 12.8 24.0887 11.8 24.0887 10.55C24.0887 9.3 23.7417 8.3 23.2461 8.3Z" fill="white"/>
<path d="M28.4008 8.00002C28.8662 8.00002 29.2434 6.97028 29.2434 5.70002C29.2434 4.42977 28.8662 3.40002 28.4008 3.40002C27.9355 3.40002 27.5582 4.42977 27.5582 5.70002C27.5582 6.97028 27.9355 8.00002 28.4008 8.00002Z" fill="url(#paint6_linear)"/>
<path d="M28.4008 8.00002C27.9052 8.00002 27.5087 6.95002 27.5087 5.70002C27.5087 4.45002 27.9052 3.40002 28.4008 3.40002C28.8965 3.40002 29.293 4.45002 29.293 5.70002C29.293 6.95002 28.8965 8.00002 28.4008 8.00002ZM28.4008 3.45002C27.9548 3.45002 27.5582 4.45002 27.5582 5.70002C27.5582 6.95002 27.9052 7.95002 28.4008 7.95002C28.8965 7.95002 29.2435 6.95002 29.2435 5.70002C29.2435 4.45002 28.8469 3.45002 28.4008 3.45002Z" fill="white"/>
<path d="M31.3253 18.55C31.7906 18.55 32.1679 17.5202 32.1679 16.25C32.1679 14.9797 31.7906 13.95 31.3253 13.95C30.8599 13.95 30.4827 14.9797 30.4827 16.25C30.4827 17.5202 30.8599 18.55 31.3253 18.55Z" fill="url(#paint7_linear)"/>
<path d="M31.3253 18.55C30.8296 18.55 30.4331 17.5 30.4331 16.25C30.4331 15 30.8296 13.95 31.3253 13.95C31.8209 13.95 32.2175 15 32.2175 16.25C32.2175 17.5 31.8209 18.55 31.3253 18.55ZM31.3253 14C30.8792 14 30.4827 15 30.4827 16.25C30.4827 17.5 30.8296 18.5 31.3253 18.5C31.7714 18.5 32.1679 17.5 32.1679 16.25C32.1679 15 31.7714 14 31.3253 14Z" fill="white"/>
<path d="M31.6721 30.0499C32.1374 30.0499 32.5147 29.0202 32.5147 27.75C32.5147 26.4797 32.1374 25.45 31.6721 25.45C31.2067 25.45 30.8295 26.4797 30.8295 27.75C30.8295 29.0202 31.2067 30.0499 31.6721 30.0499Z" fill="url(#paint8_linear)"/>
<path d="M31.6721 30.0499C31.1764 30.0499 30.7799 29 30.7799 27.75C30.7799 26.5 31.1764 25.45 31.6721 25.45C32.1677 25.45 32.5643 26.5 32.5643 27.75C32.5643 29 32.1182 30.0499 31.6721 30.0499ZM31.6721 25.5C31.226 25.5 30.8295 26.5 30.8295 27.75C30.8295 29 31.1764 30 31.6721 30C32.1677 30 32.5147 29 32.5147 27.75C32.5147 26.5 32.1182 25.5 31.6721 25.5Z" fill="white"/>
<path d="M30.3339 41.25C30.7993 41.25 31.1766 40.2203 31.1766 38.95C31.1766 37.6798 30.7993 36.65 30.3339 36.65C29.8686 36.65 29.4913 37.6798 29.4913 38.95C29.4913 40.2203 29.8686 41.25 30.3339 41.25Z" fill="url(#paint9_linear)"/>
<path d="M30.3339 41.25C29.8383 41.25 29.4418 40.2 29.4418 38.95C29.4418 37.7 29.8383 36.65 30.3339 36.65C30.8296 36.65 31.2261 37.7 31.2261 38.95C31.2261 40.25 30.8296 41.25 30.3339 41.25ZM30.3339 36.7C29.8879 36.7 29.4913 37.7 29.4913 38.95C29.4913 40.2 29.8383 41.2 30.3339 41.2C30.78 41.2 31.1766 40.2 31.1766 38.95C31.1766 37.7 30.8296 36.7 30.3339 36.7Z" fill="white"/>
<path d="M25.2286 46.7001C25.694 46.7001 26.0712 45.6704 26.0712 44.4001C26.0712 43.1298 25.694 42.1001 25.2286 42.1001C24.7632 42.1001 24.386 43.1298 24.386 44.4001C24.386 45.6704 24.7632 46.7001 25.2286 46.7001Z" fill="url(#paint10_linear)"/>
<path d="M25.2286 46.7001C24.7329 46.7001 24.3364 45.6501 24.3364 44.4001C24.3364 43.1501 24.7329 42.1001 25.2286 42.1001C25.7243 42.1001 26.1208 43.1501 26.1208 44.4001C26.0712 45.7001 25.7243 46.7001 25.2286 46.7001ZM25.2286 42.1501C24.7825 42.1501 24.386 43.1501 24.386 44.4001C24.386 45.6501 24.7329 46.6501 25.2286 46.6501C25.6747 46.6501 26.0712 45.6501 26.0712 44.4001C26.0216 43.1501 25.6747 42.1501 25.2286 42.1501Z" fill="white"/>
<path d="M22.4035 35.9501C22.8689 35.9501 23.2461 34.9204 23.2461 33.6501C23.2461 32.3798 22.8689 31.3501 22.4035 31.3501C21.9382 31.3501 21.5609 32.3798 21.5609 33.6501C21.5609 34.9204 21.9382 35.9501 22.4035 35.9501Z" fill="url(#paint11_linear)"/>
<path d="M22.4035 35.9501C21.9079 35.9501 21.5114 34.9001 21.5114 33.6501C21.5114 32.4001 21.9079 31.3501 22.4035 31.3501C22.8992 31.3501 23.2957 32.4001 23.2957 33.6501C23.2957 34.9001 22.8992 35.9501 22.4035 35.9501ZM22.4035 31.4001C21.9574 31.4001 21.5609 32.4001 21.5609 33.6501C21.5609 34.9001 21.9079 35.9001 22.4035 35.9001C22.8496 35.9001 23.2461 34.9001 23.2461 33.6501C23.2461 32.4001 22.8992 31.4001 22.4035 31.4001Z" fill="white"/>
<path d="M19.5783 25C19.5783 11.25 22.7505 0.0999756 26.7157 0.0999756H23.4444C19.5287 0.0999756 16.307 11.25 16.307 25C16.307 38.75 19.4792 49.9 23.4444 49.9H26.7157C22.8001 49.9 19.5783 38.75 19.5783 25Z" fill="url(#paint12_linear)"/>
<path d="M26.7157 0H23.4444C19.4792 0 16.2079 11.2 16.2079 25C16.2079 38.8 19.4296 50 23.4444 50H26.7157V49.8C22.8496 49.8 19.6775 38.7 19.6775 25C19.6775 11.3 22.8496 0.2 26.7157 0.2V0ZM16.4061 25C16.4061 11.35 19.5783 0.2 23.4444 0.2C23.4444 0.2 24.8322 0.2 25.8235 0.2C22.2548 1.75 19.4792 12.3 19.4792 25C19.4792 37.7 22.2548 48.25 25.774 49.8C24.8322 49.8 23.3948 49.8 23.3948 49.8C19.5783 49.8 16.4061 38.65 16.4061 25Z" fill="url(#paint13_linear)"/>
<path d="M23.4444 0C19.4792 0 16.2079 11.2 16.2079 25C16.2079 38.8 19.4296 50 23.4444 50H26.7157C30.6809 50 33.9522 38.8 33.9522 25C33.9522 11.2 30.7305 0 26.7157 0H23.4444ZM16.4061 25C16.4061 11.35 19.5783 0.2 23.4444 0.2H26.7157C30.5818 0.2 33.754 11.3 33.754 25C33.754 38.7 30.5818 49.8 26.7157 49.8H23.4444C19.5783 49.8 16.4061 38.65 16.4061 25Z" fill="url(#paint14_linear)"/>
<path d="M19.4791 25C19.4791 38.8 22.7009 50 26.7157 50C30.7304 50 33.9522 38.8 33.9522 25C33.9522 11.2 30.7304 0 26.7157 0C22.7009 0 19.4791 11.2 19.4791 25ZM19.6774 25C19.6774 11.35 22.8496 0.2 26.7157 0.2C30.5817 0.2 33.7539 11.3 33.7539 25C33.7539 38.7 30.5817 49.8 26.7157 49.8C22.8496 49.8 19.6774 38.65 19.6774 25Z" fill="url(#paint15_linear)"/>
<path d="M111.621 6.84998C113.009 11.4 113.851 17.85 113.851 25C113.851 32.15 113.009 38.6 111.621 43.15H83.9635V6.84998H111.621Z" fill="url(#paint16_linear)"/>
<path d="M83.8148 6.75V43.3H111.67V43.25C113.108 38.5 113.95 32 113.95 25.05C113.95 18.1 113.157 11.6 111.67 6.85V6.8H83.9139H83.8148V6.75ZM111.522 6.95C112.959 11.65 113.752 18.2 113.752 25C113.752 31.8 112.959 38.4 111.522 43.05C111.373 43.05 84.2113 43.05 84.0131 43.05C84.0131 42.85 84.0131 7.15 84.0131 6.95C84.2113 6.95 111.373 6.95 111.522 6.95Z" fill="url(#paint17_linear)"/>
<path d="M87.2348 49.9C91.1767 49.9 94.3722 38.7519 94.3722 25C94.3722 11.2481 91.1767 0.0999756 87.2348 0.0999756C83.2929 0.0999756 80.0974 11.2481 80.0974 25C80.0974 38.7519 83.2929 49.9 87.2348 49.9Z" fill="url(#paint18_linear)"/>
<path d="M87.0365 41.35C88.6516 41.35 89.9609 34.0299 89.9609 25C89.9609 15.9702 88.6516 8.65002 87.0365 8.65002C85.4215 8.65002 84.1122 15.9702 84.1122 25C84.1122 34.0299 85.4215 41.35 87.0365 41.35Z" fill="url(#paint19_linear)"/>
<path d="M87.0365 41.4C86.2435 41.4 85.5 39.7 84.9548 36.6C84.4096 33.5 84.1122 29.4 84.1122 25.05C84.1122 20.7 84.4096 16.55 84.9548 13.5C85.5 10.4 86.2435 8.70002 87.0365 8.70002C87.8296 8.70002 88.5731 10.4 89.1183 13.5C89.6635 16.6 89.9609 20.7 89.9609 25.05C89.9609 29.4 89.6635 33.55 89.1183 36.6C88.5731 39.65 87.8296 41.4 87.0365 41.4ZM87.0365 8.65002C85.4504 8.65002 84.1618 15.95 84.1618 25C84.1618 34.05 85.4504 41.35 87.0365 41.35C88.6226 41.35 89.9113 34.05 89.9113 25C89.9113 15.95 88.6226 8.65002 87.0365 8.65002Z" fill="white"/>
<path d="M91.9931 24.2001C92.4585 24.2001 92.8357 23.1704 92.8357 21.9001C92.8357 20.6298 92.4585 19.6001 91.9931 19.6001C91.5278 19.6001 91.1505 20.6298 91.1505 21.9001C91.1505 23.1704 91.5278 24.2001 91.9931 24.2001Z" fill="url(#paint20_linear)"/>
<path d="M91.9931 24.2001C91.4975 24.2001 91.101 23.1501 91.101 21.9001C91.101 20.6501 91.4975 19.6001 91.9931 19.6001C92.4888 19.6001 92.8853 20.6501 92.8853 21.9001C92.8853 23.1501 92.4888 24.2001 91.9931 24.2001ZM91.9931 19.6501C91.547 19.6501 91.1505 20.6501 91.1505 21.9001C91.1505 23.1501 91.4975 24.1501 91.9931 24.1501C92.4888 24.1501 92.8357 23.1501 92.8357 21.9001C92.7862 20.6501 92.4392 19.6501 91.9931 19.6501Z" fill="white"/>
<path d="M90.7044 12.85C91.1698 12.85 91.547 11.8203 91.547 10.55C91.547 9.27975 91.1698 8.25 90.7044 8.25C90.2391 8.25 89.8618 9.27975 89.8618 10.55C89.8618 11.8203 90.2391 12.85 90.7044 12.85Z" fill="url(#paint21_linear)"/>
<path d="M90.7044 12.85C90.2088 12.85 89.8123 11.8 89.8123 10.55C89.8123 9.3 90.2088 8.25 90.7044 8.25C91.2001 8.25 91.5966 9.3 91.5966 10.55C91.5966 11.8 91.1505 12.85 90.7044 12.85ZM90.7044 8.3C90.2583 8.3 89.8618 9.3 89.8618 10.55C89.8618 11.8 90.2088 12.8 90.7044 12.8C91.2001 12.8 91.547 11.8 91.547 10.55C91.547 9.3 91.1505 8.3 90.7044 8.3Z" fill="white"/>
<path d="M85.5496 8.00002C86.015 8.00002 86.3923 6.97028 86.3923 5.70002C86.3923 4.42977 86.015 3.40002 85.5496 3.40002C85.0843 3.40002 84.707 4.42977 84.707 5.70002C84.707 6.97028 85.0843 8.00002 85.5496 8.00002Z" fill="url(#paint22_linear)"/>
<path d="M85.5496 8.00002C85.054 8.00002 84.6575 6.95002 84.6575 5.70002C84.6575 4.45002 85.054 3.40002 85.5496 3.40002C86.0453 3.40002 86.4418 4.45002 86.4418 5.70002C86.4418 6.95002 86.0453 8.00002 85.5496 8.00002ZM85.5496 3.45002C85.1036 3.45002 84.707 4.45002 84.707 5.70002C84.707 6.95002 85.054 7.95002 85.5496 7.95002C85.9957 7.95002 86.3923 6.95002 86.3923 5.70002C86.3923 4.45002 85.9957 3.45002 85.5496 3.45002Z" fill="white"/>
<path d="M82.6252 18.55C83.0906 18.55 83.4678 17.5202 83.4678 16.25C83.4678 14.9797 83.0906 13.95 82.6252 13.95C82.1598 13.95 81.7826 14.9797 81.7826 16.25C81.7826 17.5202 82.1598 18.55 82.6252 18.55Z" fill="url(#paint23_linear)"/>
<path d="M82.6252 18.55C82.1296 18.55 81.733 17.5 81.733 16.25C81.733 15 82.1296 13.95 82.6252 13.95C83.1209 13.95 83.5174 15 83.5174 16.25C83.5174 17.5 83.1209 18.55 82.6252 18.55ZM82.6252 14C82.1791 14 81.7826 15 81.7826 16.25C81.7826 17.5 82.1296 18.5 82.6252 18.5C83.1209 18.5 83.4678 17.5 83.4678 16.25C83.4678 15 83.0713 14 82.6252 14Z" fill="white"/>
<path d="M82.2783 30.0499C82.7436 30.0499 83.1209 29.0202 83.1209 27.75C83.1209 26.4797 82.7436 25.45 82.2783 25.45C81.8129 25.45 81.4357 26.4797 81.4357 27.75C81.4357 29.0202 81.8129 30.0499 82.2783 30.0499Z" fill="url(#paint24_linear)"/>
<path d="M82.2783 30.0499C81.7826 30.0499 81.3861 29.05 81.3861 27.75C81.3861 26.5 81.7826 25.45 82.2783 25.45C82.7739 25.45 83.1705 26.5 83.1705 27.75C83.1705 29 82.7739 30.0499 82.2783 30.0499ZM82.2783 25.5C81.8322 25.5 81.4357 26.5 81.4357 27.75C81.4357 29 81.7826 30 82.2783 30C82.7244 30 83.1209 29 83.1209 27.75C83.1209 26.5 82.7739 25.5 82.2783 25.5Z" fill="white"/>
<path d="M83.6165 41.25C84.0819 41.25 84.4591 40.2203 84.4591 38.95C84.4591 37.6798 84.0819 36.65 83.6165 36.65C83.1512 36.65 82.7739 37.6798 82.7739 38.95C82.7739 40.2203 83.1512 41.25 83.6165 41.25Z" fill="url(#paint25_linear)"/>
<path d="M83.6165 41.25C83.1209 41.25 82.7244 40.25 82.7244 38.95C82.7244 37.7 83.1209 36.65 83.6165 36.65C84.1122 36.65 84.5087 37.7 84.5087 38.95C84.4591 40.25 84.0626 41.25 83.6165 41.25ZM83.6165 36.7C83.1705 36.7 82.7739 37.7 82.7739 38.95C82.7739 40.2 83.1209 41.2 83.6165 41.2C84.1122 41.2 84.4591 40.2 84.4591 38.95C84.4096 37.7 84.0626 36.7 83.6165 36.7Z" fill="white"/>
<path d="M88.7218 46.7001C89.1871 46.7001 89.5644 45.6704 89.5644 44.4001C89.5644 43.1298 89.1871 42.1001 88.7218 42.1001C88.2564 42.1001 87.8792 43.1298 87.8792 44.4001C87.8792 45.6704 88.2564 46.7001 88.7218 46.7001Z" fill="url(#paint26_linear)"/>
<path d="M88.7218 46.7001C88.2261 46.7001 87.8296 45.6501 87.8296 44.4001C87.8296 43.1501 88.2261 42.1001 88.7218 42.1001C89.2174 42.1001 89.6139 43.1501 89.6139 44.4001C89.6139 45.7001 89.2174 46.7001 88.7218 46.7001ZM88.7218 42.1501C88.2757 42.1501 87.8792 43.1501 87.8792 44.4001C87.8792 45.6501 88.2261 46.6501 88.7218 46.6501C89.1679 46.6501 89.5644 45.6501 89.5644 44.4001C89.5644 43.1501 89.2174 42.1501 88.7218 42.1501Z" fill="white"/>
<path d="M91.547 35.9501C92.0123 35.9501 92.3896 34.9204 92.3896 33.6501C92.3896 32.3798 92.0123 31.3501 91.547 31.3501C91.0816 31.3501 90.7043 32.3798 90.7043 33.6501C90.7043 34.9204 91.0816 35.9501 91.547 35.9501Z" fill="url(#paint27_linear)"/>
<path d="M91.547 35.9501C91.0513 35.9501 90.6548 34.9001 90.6548 33.6501C90.6548 32.4001 91.0513 31.3501 91.547 31.3501C92.0426 31.3501 92.4391 32.4001 92.4391 33.6501C92.3896 34.9001 92.0426 35.9501 91.547 35.9501ZM91.547 31.4001C91.1009 31.4001 90.7044 32.4001 90.7044 33.6501C90.7044 34.9001 91.0513 35.9001 91.547 35.9001C92.0426 35.9001 92.3896 34.9001 92.3896 33.6501C92.34 32.4001 91.993 31.4001 91.547 31.4001Z" fill="white"/>
<path d="M94.3723 25C94.3723 11.25 91.2001 0.0999756 87.2349 0.0999756H90.5062C94.4218 0.0999756 97.6436 11.25 97.6436 25C97.6436 38.75 94.4714 49.9 90.5062 49.9H87.2349C91.1505 49.9 94.3723 38.75 94.3723 25Z" fill="url(#paint28_linear)"/>
<path d="M87.2349 0.2C91.101 0.2 94.2731 11.3 94.2731 25C94.2731 38.7 91.101 49.8 87.2349 49.8V50H90.5062C94.4714 50 97.7427 38.8 97.7427 25C97.7427 11.2 94.521 0 90.5062 0H87.2349V0.2ZM90.5062 49.8C90.5062 49.8 89.1183 49.8 88.127 49.8C91.6957 48.25 94.4218 37.7 94.4218 25C94.4218 12.3 91.6462 1.75 88.127 0.2C89.0688 0.2 90.5062 0.2 90.5062 0.2C94.3723 0.2 97.5444 11.3 97.5444 25C97.5444 38.7 94.3723 49.8 90.5062 49.8Z" fill="url(#paint29_linear)"/>
<path d="M87.2348 0C83.2696 0 79.9983 11.2 79.9983 25C79.9983 38.8 83.22 50 87.2348 50H90.5061C94.4713 50 97.7426 38.8 97.7426 25C97.7426 11.2 94.5209 0 90.5061 0H87.2348ZM90.5061 49.8H87.2348C83.3687 49.8 80.1966 38.7 80.1966 25C80.1966 11.3 83.3687 0.2 87.2348 0.2H90.5061C94.3722 0.2 97.5444 11.3 97.5444 25C97.5444 38.7 94.3722 49.8 90.5061 49.8Z" fill="url(#paint30_linear)"/>
<path d="M87.2348 0C83.2696 0 79.9983 11.2 79.9983 25C79.9983 38.8 83.22 50 87.2348 50C91.2 50 94.4713 38.8 94.4713 25C94.4713 11.2 91.2496 0 87.2348 0ZM87.2348 49.8C83.3687 49.8 80.1966 38.7 80.1966 25C80.1966 11.3 83.3687 0.2 87.2348 0.2C91.1009 0.2 94.2731 11.3 94.2731 25C94.2731 38.7 91.1009 49.8 87.2348 49.8Z" fill="url(#paint31_linear)"/>
<path d="M45.5503 27.7001L45.3521 28.8001H36.6782C36.0834 28.8001 35.6869 28.3001 35.8356 27.7001L39.3051 9.65006C39.3051 9.65006 39.7016 8.05006 38.0164 8.05006L38.2147 7.10006H54.8686C54.8686 7.10006 59.5773 6.95006 59.2303 11.5001C58.8834 16.0501 57.3964 18.7501 53.9269 19.2501C53.9269 19.2501 55.5625 22.2501 56.1573 23.2501C56.8016 24.2501 57.6938 23.9501 57.6938 23.9501H58.5364L57.8425 27.6501C57.7434 28.2501 57.1486 28.7501 56.5538 28.7501H51.4982C50.9034 28.7501 50.2095 28.2501 49.9121 27.6501L45.9964 19.0501H45.7486L44.3608 26.2501C44.0634 27.5501 45.5503 27.7001 45.5503 27.7001ZM49.5651 11.3001H47.2851L46.4425 15.5001H48.8216C50.8042 15.5001 51.1512 13.9001 51.2008 13.5501C51.2008 13.5501 51.9442 11.3001 49.5651 11.3001Z" fill="#00539F"/>
<path d="M61.7086 7.09998L61.5103 8.04998C63.1955 8.04998 62.799 9.64998 62.799 9.64998L59.3294 27.7C59.2303 28.3 59.5773 28.8 60.172 28.8H68.846L69.0442 27.7C69.0442 27.7 67.5573 27.55 67.8546 26.3L69.2425 19.1C71.2251 19.1 75.339 19.1 76.3303 19.1C77.5694 19.1 77.8668 17.8 77.8668 17.8L78.412 14.9H70.0851L70.779 11.35C72.6625 11.35 77.0738 11.35 78.0155 11.35C79.2547 11.35 79.552 10.05 79.552 10.05L80.0973 7.14998H61.7086V7.09998Z" fill="#00539F"/>
<path d="M65.2277 29.8L65.1286 30.4C66.1199 30.4 65.9216 31.35 65.9216 31.35L64.2364 42.1C64.1869 42.45 64.4347 42.75 64.7816 42.75H66.3677H68.1521L69.986 42.8C70.3329 42.8 70.6799 42.5001 70.7295 42.1501L71.2251 39.1501H70.7295C70.7295 39.1501 70.5808 39.9501 69.986 39.9001C69.5895 39.9001 68.3999 39.9 67.7555 39.85L68.2016 36.9501C69.3912 36.9501 69.4903 36.95 70.0355 37C70.779 37 70.9277 36.2001 70.9277 36.2001L71.2251 34.5L68.6477 34.4501L68.9947 32.35C70.1347 32.35 70.3825 32.3501 70.9277 32.4001C71.6712 32.4001 71.8199 31.6 71.8199 31.6L72.1173 29.9L65.2277 29.8Z" fill="#00539F"/>
<path d="M74.7443 40C74.0504 40 73.1087 40.0001 72.7121 39.9501C72.1174 39.9501 72.2165 39.1501 72.2165 39.1501H71.7208L71.2747 42.1501C71.2252 42.5001 71.473 42.8 71.82 42.8C72.1174 42.8 75.5869 42.85 75.8843 42.85C76.1817 42.85 77.5695 42.2 78.0156 40.25C78.4121 38.25 78.8582 36.25 77.4704 35.3C76.0826 34.35 75.5374 34.0001 75.6365 33.4001C75.7356 32.9001 75.8843 32.5 76.3304 32.55C76.9747 32.55 77.5695 32.55 77.5695 32.55H78.0652C78.0652 32.55 78.5608 32.55 78.66 32.05C78.8087 31.6 79.106 29.9 79.106 29.9C79.106 29.9 75.3391 29.8 75.0913 29.8C74.5956 29.8 73.4556 30.25 73.1582 31.3C72.8608 32.35 71.9191 35.55 73.1087 36.55C74.3478 37.5 75.4382 38.2001 75.3391 38.9001C75.3391 39.5001 75.1408 40 74.7443 40Z" fill="#00539F"/>
<path d="M55.6121 30.9501L54.2243 39.7501C54.9182 39.7501 55.4634 39.7501 55.86 39.7501C56.4547 39.7501 56.6034 39.0001 56.6034 39.0001H57.0991L56.6034 42.0001C56.5539 42.3501 56.2069 42.6501 55.86 42.6501H54.6208H52.8365H51.2504C50.9034 42.6501 50.6556 42.3501 50.7052 42.0001L52.3904 31.2501C52.3904 31.2501 52.5886 30.3001 51.5973 30.3001L51.6965 29.7001C51.6965 29.7001 54.4721 29.7501 54.6704 29.7501C54.9182 29.7001 55.7608 29.9001 55.6121 30.9501Z" fill="#00539F"/>
<path d="M50.0113 42.1C50.0113 42.1 49.1687 42 49.1687 41.25V30.3C49.1687 29.9 48.7721 29.8 48.5739 29.8C48.5243 29.8 48.3756 29.8 48.0782 29.8H45.5008H44.4104L44.2617 30.4C45.253 30.4 44.8069 31.35 44.8069 31.35L40.7921 42.1C40.6434 42.45 40.8417 42.75 41.1887 42.75H44.0139L44.2121 42.1C44.2121 42.1 43.3695 42 43.6174 41.25L44.2121 39.7001H46.4921V42.1C46.4921 42.45 46.7895 42.75 47.1365 42.75H49.9617L50.0113 42.1ZM45.1539 37.25L46.5417 33.55V37.25H45.1539Z" fill="#00539F"/>
<path d="M39.4042 41.85L43.7164 30.3C43.8651 29.9 43.4686 29.8 43.3199 29.8C43.1712 29.8 40.2469 29.8 40.2469 29.8L40.0982 30.4C41.0895 30.4 40.6929 31.35 40.6929 31.35L38.4129 37.4001V30.3C38.4129 29.9 38.0164 29.8 37.8182 29.8C37.6695 29.8 34.7451 29.8 34.7451 29.8L34.7947 30.4C35.786 30.4 35.7364 31.35 35.7364 31.35V42.1C35.7364 42.45 36.0338 42.75 36.3808 42.75C36.3808 42.75 38.3138 42.75 38.5121 42.75C38.8095 42.75 39.206 42.45 39.4042 41.85Z" fill="#00539F"/>
<path d="M61.1634 41.85L65.4756 30.3C65.6243 29.9 65.2277 29.8 65.0791 29.8C64.9304 29.8 62.006 29.8 62.006 29.8L61.8573 30.4C62.8486 30.4 62.4521 31.35 62.4521 31.35L60.1721 37.4001V30.3C60.1721 29.9 59.7756 29.8 59.5773 29.8C59.4286 29.8 56.5043 29.8 56.5043 29.8L56.5538 30.4C57.5451 30.4 57.4956 31.35 57.4956 31.35V42.1C57.4956 42.45 57.793 42.75 58.1399 42.75C58.1399 42.75 60.073 42.75 60.2712 42.75C60.5686 42.75 60.9156 42.45 61.1634 41.85Z" fill="#00539F"/>
<defs>
<linearGradient id="paint0_linear" x1="15.0677" y1="6.79253" x2="15.0677" y2="40.3339" gradientUnits="userSpaceOnUse">
<stop offset="0.005618" stop-color="#CCCCCC"/>
<stop offset="0.4157" stop-color="white"/>
<stop offset="1"/>
</linearGradient>
<linearGradient id="paint1_linear" x1="15.0677" y1="14.1342" x2="15.0677" y2="43.2168" gradientUnits="userSpaceOnUse">
<stop offset="0.005618" stop-color="#DCDDDE"/>
<stop offset="0.236" stop-color="white"/>
<stop offset="1" stop-color="#231F20"/>
</linearGradient>
<linearGradient id="paint2_linear" x1="26.7133" y1="0.104126" x2="26.7133" y2="49.8958" gradientUnits="userSpaceOnUse">
<stop offset="0.005618" stop-color="#B3B3B3"/>
<stop offset="1" stop-color="#BFBFBF"/>
</linearGradient>
<linearGradient id="paint3_linear" x1="26.9165" y1="35.1756" x2="26.9165" y2="7.48472" gradientUnits="userSpaceOnUse">
<stop stop-color="white"/>
<stop offset="1" stop-color="#231F20"/>
</linearGradient>
<linearGradient id="paint4_linear" x1="21.9717" y1="24.1664" x2="21.9717" y2="19.6056" gradientUnits="userSpaceOnUse">
<stop stop-color="white"/>
<stop offset="1" stop-color="#231F20"/>
</linearGradient>
<linearGradient id="paint5_linear" x1="23.2643" y1="12.8176" x2="23.2643" y2="8.25685" gradientUnits="userSpaceOnUse">
<stop stop-color="white"/>
<stop offset="1" stop-color="#231F20"/>
</linearGradient>
<linearGradient id="paint6_linear" x1="28.4044" y1="7.96077" x2="28.4044" y2="3.39997" gradientUnits="userSpaceOnUse">
<stop stop-color="white"/>
<stop offset="1" stop-color="#231F20"/>
</linearGradient>
<linearGradient id="paint7_linear" x1="31.3324" y1="18.5276" x2="31.3324" y2="13.9669" gradientUnits="userSpaceOnUse">
<stop stop-color="white"/>
<stop offset="1" stop-color="#231F20"/>
</linearGradient>
<linearGradient id="paint8_linear" x1="31.6575" y1="30.0135" x2="31.6575" y2="25.4528" gradientUnits="userSpaceOnUse">
<stop stop-color="white"/>
<stop offset="1" stop-color="#231F20"/>
</linearGradient>
<linearGradient id="paint9_linear" x1="30.3563" y1="41.237" x2="30.3563" y2="36.6762" gradientUnits="userSpaceOnUse">
<stop stop-color="white"/>
<stop offset="1" stop-color="#231F20"/>
</linearGradient>
<linearGradient id="paint10_linear" x1="25.2163" y1="46.6845" x2="25.2163" y2="42.1237" gradientUnits="userSpaceOnUse">
<stop stop-color="white"/>
<stop offset="1" stop-color="#231F20"/>
</linearGradient>
<linearGradient id="paint11_linear" x1="22.4187" y1="35.9206" x2="22.4187" y2="31.3599" gradientUnits="userSpaceOnUse">
<stop stop-color="white"/>
<stop offset="1" stop-color="#231F20"/>
</linearGradient>
<linearGradient id="paint12_linear" x1="21.5147" y1="10.1919" x2="21.5147" y2="49.8261" gradientUnits="userSpaceOnUse">
<stop stop-color="white"/>
<stop offset="1" stop-color="#231F20"/>
</linearGradient>
<linearGradient id="paint13_linear" x1="21.463" y1="49.22" x2="21.463" y2="0.86" gradientUnits="userSpaceOnUse">
<stop stop-color="white"/>
<stop offset="1" stop-color="#D1D3D4"/>
</linearGradient>
<linearGradient id="paint14_linear" x1="25.0772" y1="10.13" x2="25.0772" y2="49.93" gradientUnits="userSpaceOnUse">
<stop offset="0.005618" stop-color="#DCDDDE"/>
<stop offset="0.236" stop-color="white"/>
<stop offset="1" stop-color="#231F20"/>
</linearGradient>
<linearGradient id="paint15_linear" x1="26.7133" y1="45.355" x2="26.7133" y2="0.71" gradientUnits="userSpaceOnUse">
<stop stop-color="white"/>
<stop offset="1" stop-color="#D1D3D4"/>
</linearGradient>
<linearGradient id="paint16_linear" x1="98.8854" y1="6.79253" x2="98.8854" y2="40.3339" gradientUnits="userSpaceOnUse">
<stop offset="0.005618" stop-color="#CCCCCC"/>
<stop offset="0.4157" stop-color="white"/>
<stop offset="1"/>
</linearGradient>
<linearGradient id="paint17_linear" x1="98.8854" y1="14.1342" x2="98.8854" y2="43.2168" gradientUnits="userSpaceOnUse">
<stop offset="0.005618" stop-color="#DCDDDE"/>
<stop offset="0.236" stop-color="white"/>
<stop offset="1" stop-color="#231F20"/>
</linearGradient>
<linearGradient id="paint18_linear" x1="87.2398" y1="0.104126" x2="87.2398" y2="49.8958" gradientUnits="userSpaceOnUse">
<stop offset="0.005618" stop-color="#B3B3B3"/>
<stop offset="1" stop-color="#BFBFBF"/>
</linearGradient>
<linearGradient id="paint19_linear" x1="87.0366" y1="35.1756" x2="87.0366" y2="7.48472" gradientUnits="userSpaceOnUse">
<stop stop-color="white"/>
<stop offset="1" stop-color="#231F20"/>
</linearGradient>
<linearGradient id="paint20_linear" x1="91.9814" y1="24.1664" x2="91.9814" y2="19.6056" gradientUnits="userSpaceOnUse">
<stop stop-color="white"/>
<stop offset="1" stop-color="#231F20"/>
</linearGradient>
<linearGradient id="paint21_linear" x1="90.6888" y1="12.8176" x2="90.6888" y2="8.25685" gradientUnits="userSpaceOnUse">
<stop stop-color="white"/>
<stop offset="1" stop-color="#231F20"/>
</linearGradient>
<linearGradient id="paint22_linear" x1="85.5487" y1="7.96077" x2="85.5487" y2="3.39997" gradientUnits="userSpaceOnUse">
<stop stop-color="white"/>
<stop offset="1" stop-color="#231F20"/>
</linearGradient>
<linearGradient id="paint23_linear" x1="82.6206" y1="18.5276" x2="82.6206" y2="13.9669" gradientUnits="userSpaceOnUse">
<stop stop-color="white"/>
<stop offset="1" stop-color="#231F20"/>
</linearGradient>
<linearGradient id="paint24_linear" x1="82.2956" y1="30.0135" x2="82.2956" y2="25.4528" gradientUnits="userSpaceOnUse">
<stop stop-color="white"/>
<stop offset="1" stop-color="#231F20"/>
</linearGradient>
<linearGradient id="paint25_linear" x1="83.5968" y1="41.237" x2="83.5968" y2="36.6762" gradientUnits="userSpaceOnUse">
<stop stop-color="white"/>
<stop offset="1" stop-color="#231F20"/>
</linearGradient>
<linearGradient id="paint26_linear" x1="88.7367" y1="46.6845" x2="88.7367" y2="42.1237" gradientUnits="userSpaceOnUse">
<stop stop-color="white"/>
<stop offset="1" stop-color="#231F20"/>
</linearGradient>
<linearGradient id="paint27_linear" x1="91.5344" y1="35.9206" x2="91.5344" y2="31.3599" gradientUnits="userSpaceOnUse">
<stop stop-color="white"/>
<stop offset="1" stop-color="#231F20"/>
</linearGradient>
<linearGradient id="paint28_linear" x1="92.4385" y1="10.1919" x2="92.4385" y2="49.8261" gradientUnits="userSpaceOnUse">
<stop stop-color="white"/>
<stop offset="1" stop-color="#231F20"/>
</linearGradient>
<linearGradient id="paint29_linear" x1="92.4902" y1="49.22" x2="92.4902" y2="0.86" gradientUnits="userSpaceOnUse">
<stop stop-color="white"/>
<stop offset="1" stop-color="#D1D3D4"/>
</linearGradient>
<linearGradient id="paint30_linear" x1="88.876" y1="10.13" x2="88.876" y2="49.93" gradientUnits="userSpaceOnUse">
<stop offset="0.005618" stop-color="#DCDDDE"/>
<stop offset="0.236" stop-color="white"/>
<stop offset="1" stop-color="#231F20"/>
</linearGradient>
<linearGradient id="paint31_linear" x1="87.2398" y1="45.355" x2="87.2398" y2="0.71" gradientUnits="userSpaceOnUse">
<stop stop-color="white"/>
<stop offset="1" stop-color="#D1D3D4"/>
</linearGradient>
</defs>
</svg>
