<?xml version="1.0" encoding="utf-8"?>
<!-- Generator: Adobe Illustrator 18.0.0, SVG Export Plug-In . SVG Version: 6.00 Build 0)  -->
<!DOCTYPE svg PUBLIC "-//W3C//DTD SVG 1.1//EN" "http://www.w3.org/Graphics/SVG/1.1/DTD/svg11.dtd">
<svg version="1.1" id="_x3C_Layer_x3E_" xmlns="http://www.w3.org/2000/svg" xmlns:xlink="http://www.w3.org/1999/xlink" x="0px"
	 y="0px" width="230px" height="100px" viewBox="0 0 230 100" enable-background="new 0 0 230 100" xml:space="preserve">
<g>
	<g>
		<g>
			<ellipse fill="none" cx="47.3" cy="50" rx="14.4" ry="49.8"/>
			<linearGradient id="SVGID_1_" gradientUnits="userSpaceOnUse" x1="30.3997" y1="13.5851" x2="30.3997" y2="80.6678">
				<stop  offset="5.618000e-03" style="stop-color:#CCCCCC"/>
				<stop  offset="0.4157" style="stop-color:#FFFFFF"/>
				<stop  offset="1" style="stop-color:#000000"/>
			</linearGradient>
			<path fill="url(#SVGID_1_)" d="M4.8,13.7C2,22.8,0.2,35.7,0.2,50S2,77.2,4.8,86.3h55.8V13.7H4.8z"/>
			<linearGradient id="SVGID_2_" gradientUnits="userSpaceOnUse" x1="30.3997" y1="28.2684" x2="30.3997" y2="86.4337">
				<stop  offset="5.618000e-03" style="stop-color:#DCDDDE"/>
				<stop  offset="0.236" style="stop-color:#FFFFFF"/>
				<stop  offset="1" style="stop-color:#231F20"/>
			</linearGradient>
			<path fill="url(#SVGID_2_)" d="M60.6,13.5h-56l0,0.1C1.6,23.1,0,36.1,0,50c0,13.9,1.6,26.9,4.6,36.4l0,0.1h56.2V13.5H60.6z
				 M60.4,13.9c0,0.4,0,71.8,0,72.2c-0.4,0-55.2,0-55.5,0C2.1,76.8,0.4,63.6,0.4,50c0-13.6,1.6-26.8,4.5-36.1
				C5.2,13.9,60,13.9,60.4,13.9z"/>
			<linearGradient id="SVGID_3_" gradientUnits="userSpaceOnUse" x1="53.8952" y1="0.2083" x2="53.8952" y2="99.7917">
				<stop  offset="5.618000e-03" style="stop-color:#B3B3B3"/>
				<stop  offset="1" style="stop-color:#BFBFBF"/>
			</linearGradient>
			<ellipse fill="url(#SVGID_3_)" cx="53.9" cy="50" rx="14.4" ry="49.8"/>
			<g>
				<g>
					<linearGradient id="SVGID_4_" gradientUnits="userSpaceOnUse" x1="54.305" y1="70.3511" x2="54.305" y2="14.9694">
						<stop  offset="0" style="stop-color:#FFFFFF"/>
						<stop  offset="1" style="stop-color:#231F20"/>
					</linearGradient>
					<ellipse fill="url(#SVGID_4_)" cx="54.3" cy="50" rx="5.9" ry="32.7"/>
					<path fill="#FFFFFF" d="M54.3,82.8c-1.6,0-3.1-3.4-4.2-9.6C49,67,48.4,58.7,48.4,50s0.6-17,1.7-23.1c1.1-6.2,2.6-9.6,4.2-9.6
						c1.6,0,3.1,3.4,4.2,9.6c1.1,6.2,1.7,14.4,1.7,23.1s-0.6,17-1.7,23.1C57.4,79.3,55.9,82.8,54.3,82.8z M54.3,17.3
						c-3.2,0-5.8,14.6-5.8,32.7s2.6,32.7,5.8,32.7c3.2,0,5.8-14.6,5.8-32.7S57.5,17.3,54.3,17.3z"/>
				</g>
				<g>
					<linearGradient id="SVGID_5_" gradientUnits="userSpaceOnUse" x1="44.3289" y1="48.3326" x2="44.3289" y2="39.2111">
						<stop  offset="0" style="stop-color:#FFFFFF"/>
						<stop  offset="1" style="stop-color:#231F20"/>
					</linearGradient>
					<ellipse fill="url(#SVGID_5_)" cx="44.3" cy="43.8" rx="1.7" ry="4.6"/>
					<path fill="#FFFFFF" d="M44.3,48.4c-1,0-1.8-2.1-1.8-4.6c0-2.5,0.8-4.6,1.8-4.6c1,0,1.8,2.1,1.8,4.6
						C46.1,46.3,45.3,48.4,44.3,48.4z M44.3,39.3c-0.9,0-1.7,2-1.7,4.5c0,2.5,0.7,4.5,1.7,4.5c0.9,0,1.7-2,1.7-4.5
						C46,41.3,45.2,39.3,44.3,39.3z"/>
				</g>
				<g>
					<linearGradient id="SVGID_6_" gradientUnits="userSpaceOnUse" x1="46.9369" y1="25.6352" x2="46.9369" y2="16.5137">
						<stop  offset="0" style="stop-color:#FFFFFF"/>
						<stop  offset="1" style="stop-color:#231F20"/>
					</linearGradient>
					<ellipse fill="url(#SVGID_6_)" cx="46.9" cy="21.1" rx="1.7" ry="4.6"/>
					<path fill="#FFFFFF" d="M46.9,25.7c-1,0-1.8-2.1-1.8-4.6s0.8-4.6,1.8-4.6s1.8,2.1,1.8,4.6S47.9,25.7,46.9,25.7z M46.9,16.6
						c-0.9,0-1.7,2-1.7,4.5s0.7,4.5,1.7,4.5s1.7-2,1.7-4.5S47.9,16.6,46.9,16.6z"/>
				</g>
				<g>
					<linearGradient id="SVGID_7_" gradientUnits="userSpaceOnUse" x1="57.3071" y1="15.9215" x2="57.3071" y2="6.7999">
						<stop  offset="0" style="stop-color:#FFFFFF"/>
						<stop  offset="1" style="stop-color:#231F20"/>
					</linearGradient>
					<ellipse fill="url(#SVGID_7_)" cx="57.3" cy="11.4" rx="1.7" ry="4.6"/>
					<path fill="#FFFFFF" d="M57.3,16c-1,0-1.8-2.1-1.8-4.6s0.8-4.6,1.8-4.6c1,0,1.8,2.1,1.8,4.6S58.3,16,57.3,16z M57.3,6.9
						c-0.9,0-1.7,2-1.7,4.5s0.7,4.5,1.7,4.5s1.7-2,1.7-4.5S58.2,6.9,57.3,6.9z"/>
				</g>
				<g>
					<linearGradient id="SVGID_8_" gradientUnits="userSpaceOnUse" x1="63.2144" y1="37.0553" x2="63.2144" y2="27.9338">
						<stop  offset="0" style="stop-color:#FFFFFF"/>
						<stop  offset="1" style="stop-color:#231F20"/>
					</linearGradient>
					<ellipse fill="url(#SVGID_8_)" cx="63.2" cy="32.5" rx="1.7" ry="4.6"/>
					<path fill="#FFFFFF" d="M63.2,37.1c-1,0-1.8-2.1-1.8-4.6c0-2.5,0.8-4.6,1.8-4.6c1,0,1.8,2.1,1.8,4.6C65,35,64.2,37.1,63.2,37.1
						z M63.2,28c-0.9,0-1.7,2-1.7,4.5c0,2.5,0.7,4.5,1.7,4.5c0.9,0,1.7-2,1.7-4.5C64.9,30,64.1,28,63.2,28z"/>
				</g>
				<g>
					<linearGradient id="SVGID_9_" gradientUnits="userSpaceOnUse" x1="63.8706" y1="60.0272" x2="63.8706" y2="50.9057">
						<stop  offset="0" style="stop-color:#FFFFFF"/>
						<stop  offset="1" style="stop-color:#231F20"/>
					</linearGradient>
					<ellipse fill="url(#SVGID_9_)" cx="63.9" cy="55.5" rx="1.7" ry="4.6"/>
					<path fill="#FFFFFF" d="M63.9,60.1c-1,0-1.8-2.1-1.8-4.6s0.8-4.6,1.8-4.6s1.8,2.1,1.8,4.6S64.8,60.1,63.9,60.1z M63.9,51
						c-0.9,0-1.7,2-1.7,4.5s0.7,4.5,1.7,4.5s1.7-2,1.7-4.5S64.8,51,63.9,51z"/>
				</g>
				<g>
					<linearGradient id="SVGID_10_" gradientUnits="userSpaceOnUse" x1="61.2452" y1="82.4739" x2="61.2452" y2="73.3524">
						<stop  offset="0" style="stop-color:#FFFFFF"/>
						<stop  offset="1" style="stop-color:#231F20"/>
					</linearGradient>
					<ellipse fill="url(#SVGID_10_)" cx="61.2" cy="77.9" rx="1.7" ry="4.6"/>
					<path fill="#FFFFFF" d="M61.2,82.5c-1,0-1.8-2.1-1.8-4.6c0-2.5,0.8-4.6,1.8-4.6c1,0,1.8,2.1,1.8,4.6
						C63,80.5,62.2,82.5,61.2,82.5z M61.2,73.4c-0.9,0-1.7,2-1.7,4.5c0,2.5,0.7,4.5,1.7,4.5c0.9,0,1.7-2,1.7-4.5
						C62.9,75.4,62.2,73.4,61.2,73.4z"/>
				</g>
				<g>
					<linearGradient id="SVGID_11_" gradientUnits="userSpaceOnUse" x1="50.8751" y1="93.3687" x2="50.8751" y2="84.2472">
						<stop  offset="0" style="stop-color:#FFFFFF"/>
						<stop  offset="1" style="stop-color:#231F20"/>
					</linearGradient>
					<ellipse fill="url(#SVGID_11_)" cx="50.9" cy="88.8" rx="1.7" ry="4.6"/>
					<path fill="#FFFFFF" d="M50.9,93.4c-1,0-1.8-2.1-1.8-4.6c0-2.5,0.8-4.6,1.8-4.6c1,0,1.8,2.1,1.8,4.6
						C52.6,91.4,51.9,93.4,50.9,93.4z M50.9,84.3c-0.9,0-1.7,2-1.7,4.5c0,2.5,0.7,4.5,1.7,4.5c0.9,0,1.7-2,1.7-4.5
						C52.5,86.3,51.8,84.3,50.9,84.3z"/>
				</g>
				<g>
					<linearGradient id="SVGID_12_" gradientUnits="userSpaceOnUse" x1="45.2306" y1="71.8411" x2="45.2306" y2="62.7196">
						<stop  offset="0" style="stop-color:#FFFFFF"/>
						<stop  offset="1" style="stop-color:#231F20"/>
					</linearGradient>
					<ellipse fill="url(#SVGID_12_)" cx="45.2" cy="67.3" rx="1.7" ry="4.6"/>
					<path fill="#FFFFFF" d="M45.2,71.9c-1,0-1.8-2.1-1.8-4.6c0-2.5,0.8-4.6,1.8-4.6c1,0,1.8,2.1,1.8,4.6
						C47,69.8,46.2,71.9,45.2,71.9z M45.2,62.8c-0.9,0-1.7,2-1.7,4.5c0,2.5,0.7,4.5,1.7,4.5c0.9,0,1.7-2,1.7-4.5
						C46.9,64.8,46.2,62.8,45.2,62.8z"/>
				</g>
			</g>
			<path fill="none" d="M53.9,0.2h-6.6c-7.9,0-14.4,22.3-14.4,49.8c0,27.5,6.4,49.8,14.4,49.8h6.6c7.9,0,14.4-22.3,14.4-49.8
				C68.3,22.5,61.8,0.2,53.9,0.2z"/>
			<linearGradient id="SVGID_13_" gradientUnits="userSpaceOnUse" x1="43.4067" y1="20.3839" x2="43.4067" y2="99.6523">
				<stop  offset="0" style="stop-color:#FFFFFF"/>
				<stop  offset="1" style="stop-color:#231F20"/>
			</linearGradient>
			<path fill="url(#SVGID_13_)" d="M39.5,50c0-27.5,6.4-49.8,14.4-49.8h-6.6c-7.9,0-14.4,22.3-14.4,49.8c0,27.5,6.4,49.8,14.4,49.8
				h6.6C46,99.8,39.5,77.5,39.5,50z"/>
			<linearGradient id="SVGID_14_" gradientUnits="userSpaceOnUse" x1="43.3025" y1="98.44" x2="43.3025" y2="1.72">
				<stop  offset="0" style="stop-color:#FFFFFF"/>
				<stop  offset="1" style="stop-color:#D1D3D4"/>
			</linearGradient>
			<path fill="url(#SVGID_14_)" d="M53.9,0h-6.6c-8,0-14.6,22.4-14.6,50c0,27.6,6.5,50,14.6,50h6.6v-0.4c-7.8,0-14.2-22.2-14.2-49.6
				S46.1,0.4,53.9,0.4V0z M33.1,50c0-27.3,6.4-49.6,14.2-49.6c0,0,2.8,0,4.8,0C44.9,3.5,39.3,24.6,39.3,50
				c0,25.4,5.6,46.5,12.7,49.6c-1.9,0-4.8,0-4.8,0C39.5,99.6,33.1,77.3,33.1,50z"/>
			<linearGradient id="SVGID_15_" gradientUnits="userSpaceOnUse" x1="50.5942" y1="20.26" x2="50.5942" y2="99.86">
				<stop  offset="5.618000e-03" style="stop-color:#DCDDDE"/>
				<stop  offset="0.236" style="stop-color:#FFFFFF"/>
				<stop  offset="1" style="stop-color:#231F20"/>
			</linearGradient>
			<path fill="url(#SVGID_15_)" d="M47.3,0c-8,0-14.6,22.4-14.6,50c0,27.6,6.5,50,14.6,50h6.6c8,0,14.6-22.4,14.6-50
				c0-27.6-6.5-50-14.6-50H47.3z M33.1,50c0-27.3,6.4-49.6,14.2-49.6h6.6c7.8,0,14.2,22.2,14.2,49.6s-6.4,49.6-14.2,49.6h-6.6
				C39.5,99.6,33.1,77.3,33.1,50z"/>
			<linearGradient id="SVGID_16_" gradientUnits="userSpaceOnUse" x1="53.8952" y1="90.71" x2="53.8952" y2="1.42">
				<stop  offset="0" style="stop-color:#FFFFFF"/>
				<stop  offset="1" style="stop-color:#D1D3D4"/>
			</linearGradient>
			<path fill="url(#SVGID_16_)" d="M39.3,50c0,27.6,6.5,50,14.6,50s14.6-22.4,14.6-50c0-27.6-6.5-50-14.6-50S39.3,22.4,39.3,50z
				 M39.7,50c0-27.3,6.4-49.6,14.2-49.6c7.8,0,14.2,22.2,14.2,49.6s-6.4,49.6-14.2,49.6C46.1,99.6,39.7,77.3,39.7,50z"/>
		</g>
		<g>
			<ellipse fill="none" cx="182.6" cy="50" rx="14.4" ry="49.8"/>
			
				<linearGradient id="SVGID_17_" gradientUnits="userSpaceOnUse" x1="12.4944" y1="13.5851" x2="12.4944" y2="80.6678" gradientTransform="matrix(-1 0 0 1 212 0)">
				<stop  offset="5.618000e-03" style="stop-color:#CCCCCC"/>
				<stop  offset="0.4157" style="stop-color:#FFFFFF"/>
				<stop  offset="1" style="stop-color:#000000"/>
			</linearGradient>
			<path fill="url(#SVGID_17_)" d="M225.2,13.7c2.8,9.1,4.5,22,4.5,36.3s-1.7,27.2-4.5,36.3h-55.8V13.7H225.2z"/>
			<linearGradient id="SVGID_18_" gradientUnits="userSpaceOnUse" x1="199.5056" y1="28.2684" x2="199.5056" y2="86.4337">
				<stop  offset="5.618000e-03" style="stop-color:#DCDDDE"/>
				<stop  offset="0.236" style="stop-color:#FFFFFF"/>
				<stop  offset="1" style="stop-color:#231F20"/>
			</linearGradient>
			<path fill="url(#SVGID_18_)" d="M169.1,13.5v73.1h56.2l0-0.1c2.9-9.5,4.6-22.5,4.6-36.4c0-13.9-1.6-26.9-4.6-36.4l0-0.1h-56
				H169.1z M225,13.9c2.9,9.4,4.5,22.5,4.5,36.1c0,13.6-1.6,26.8-4.5,36.1c-0.3,0-55.1,0-55.5,0c0-0.4,0-71.8,0-72.2
				C169.9,13.9,224.7,13.9,225,13.9z"/>
			
				<linearGradient id="SVGID_19_" gradientUnits="userSpaceOnUse" x1="35.9899" y1="0.2083" x2="35.9899" y2="99.7917" gradientTransform="matrix(-1 0 0 1 212 0)">
				<stop  offset="5.618000e-03" style="stop-color:#B3B3B3"/>
				<stop  offset="1" style="stop-color:#BFBFBF"/>
			</linearGradient>
			<ellipse fill="url(#SVGID_19_)" cx="176" cy="50" rx="14.4" ry="49.8"/>
			<g>
				<g>
					
						<linearGradient id="SVGID_20_" gradientUnits="userSpaceOnUse" x1="36.3999" y1="70.3511" x2="36.3999" y2="14.9694" gradientTransform="matrix(-1 0 0 1 212 0)">
						<stop  offset="0" style="stop-color:#FFFFFF"/>
						<stop  offset="1" style="stop-color:#231F20"/>
					</linearGradient>
					<ellipse fill="url(#SVGID_20_)" cx="175.6" cy="50" rx="5.9" ry="32.7"/>
					<path fill="#FFFFFF" d="M175.6,82.8c-1.6,0-3.1-3.4-4.2-9.6c-1.1-6.2-1.7-14.4-1.7-23.1s0.6-17,1.7-23.1
						c1.1-6.2,2.6-9.6,4.2-9.6c1.6,0,3.1,3.4,4.2,9.6c1.1,6.2,1.7,14.4,1.7,23.1c0,8.7-0.6,17-1.7,23.1
						C178.7,79.3,177.2,82.8,175.6,82.8z M175.6,17.3c-3.2,0-5.8,14.6-5.8,32.7s2.6,32.7,5.8,32.7c3.2,0,5.8-14.6,5.8-32.7
						S178.8,17.3,175.6,17.3z"/>
				</g>
				<g>
					
						<linearGradient id="SVGID_21_" gradientUnits="userSpaceOnUse" x1="26.4237" y1="48.3326" x2="26.4237" y2="39.2111" gradientTransform="matrix(-1 0 0 1 212 0)">
						<stop  offset="0" style="stop-color:#FFFFFF"/>
						<stop  offset="1" style="stop-color:#231F20"/>
					</linearGradient>
					<ellipse fill="url(#SVGID_21_)" cx="185.6" cy="43.8" rx="1.7" ry="4.6"/>
					<path fill="#FFFFFF" d="M185.6,48.4c-1,0-1.8-2.1-1.8-4.6c0-2.5,0.8-4.6,1.8-4.6s1.8,2.1,1.8,4.6
						C187.4,46.3,186.6,48.4,185.6,48.4z M185.6,39.3c-0.9,0-1.7,2-1.7,4.5c0,2.5,0.7,4.5,1.7,4.5s1.7-2,1.7-4.5
						C187.2,41.3,186.5,39.3,185.6,39.3z"/>
				</g>
				<g>
					
						<linearGradient id="SVGID_22_" gradientUnits="userSpaceOnUse" x1="29.0315" y1="25.6352" x2="29.0315" y2="16.5137" gradientTransform="matrix(-1 0 0 1 212 0)">
						<stop  offset="0" style="stop-color:#FFFFFF"/>
						<stop  offset="1" style="stop-color:#231F20"/>
					</linearGradient>
					<ellipse fill="url(#SVGID_22_)" cx="183" cy="21.1" rx="1.7" ry="4.6"/>
					<path fill="#FFFFFF" d="M183,25.7c-1,0-1.8-2.1-1.8-4.6s0.8-4.6,1.8-4.6s1.8,2.1,1.8,4.6S183.9,25.7,183,25.7z M183,16.6
						c-0.9,0-1.7,2-1.7,4.5s0.7,4.5,1.7,4.5s1.7-2,1.7-4.5S183.9,16.6,183,16.6z"/>
				</g>
				<g>
					
						<linearGradient id="SVGID_23_" gradientUnits="userSpaceOnUse" x1="39.4018" y1="15.9215" x2="39.4018" y2="6.7999" gradientTransform="matrix(-1 0 0 1 212 0)">
						<stop  offset="0" style="stop-color:#FFFFFF"/>
						<stop  offset="1" style="stop-color:#231F20"/>
					</linearGradient>
					<ellipse fill="url(#SVGID_23_)" cx="172.6" cy="11.4" rx="1.7" ry="4.6"/>
					<path fill="#FFFFFF" d="M172.6,16c-1,0-1.8-2.1-1.8-4.6s0.8-4.6,1.8-4.6c1,0,1.8,2.1,1.8,4.6S173.6,16,172.6,16z M172.6,6.9
						c-0.9,0-1.7,2-1.7,4.5s0.7,4.5,1.7,4.5c0.9,0,1.7-2,1.7-4.5S173.5,6.9,172.6,6.9z"/>
				</g>
				<g>
					
						<linearGradient id="SVGID_24_" gradientUnits="userSpaceOnUse" x1="45.3092" y1="37.0553" x2="45.3092" y2="27.9338" gradientTransform="matrix(-1 0 0 1 212 0)">
						<stop  offset="0" style="stop-color:#FFFFFF"/>
						<stop  offset="1" style="stop-color:#231F20"/>
					</linearGradient>
					<ellipse fill="url(#SVGID_24_)" cx="166.7" cy="32.5" rx="1.7" ry="4.6"/>
					<path fill="#FFFFFF" d="M166.7,37.1c-1,0-1.8-2.1-1.8-4.6c0-2.5,0.8-4.6,1.8-4.6s1.8,2.1,1.8,4.6
						C168.5,35,167.7,37.1,166.7,37.1z M166.7,28c-0.9,0-1.7,2-1.7,4.5c0,2.5,0.7,4.5,1.7,4.5s1.7-2,1.7-4.5
						C168.4,30,167.6,28,166.7,28z"/>
				</g>
				<g>
					
						<linearGradient id="SVGID_25_" gradientUnits="userSpaceOnUse" x1="45.9651" y1="60.0272" x2="45.9651" y2="50.9057" gradientTransform="matrix(-1 0 0 1 212 0)">
						<stop  offset="0" style="stop-color:#FFFFFF"/>
						<stop  offset="1" style="stop-color:#231F20"/>
					</linearGradient>
					<ellipse fill="url(#SVGID_25_)" cx="166" cy="55.5" rx="1.7" ry="4.6"/>
					<path fill="#FFFFFF" d="M166,60.1c-1,0-1.8-2-1.8-4.6c0-2.5,0.8-4.6,1.8-4.6c1,0,1.8,2.1,1.8,4.6S167,60.1,166,60.1z M166,51
						c-0.9,0-1.7,2-1.7,4.5s0.7,4.5,1.7,4.5c0.9,0,1.7-2,1.7-4.5S167,51,166,51z"/>
				</g>
				<g>
					
						<linearGradient id="SVGID_26_" gradientUnits="userSpaceOnUse" x1="43.3398" y1="82.4739" x2="43.3398" y2="73.3524" gradientTransform="matrix(-1 0 0 1 212 0)">
						<stop  offset="0" style="stop-color:#FFFFFF"/>
						<stop  offset="1" style="stop-color:#231F20"/>
					</linearGradient>
					<ellipse fill="url(#SVGID_26_)" cx="168.7" cy="77.9" rx="1.7" ry="4.6"/>
					<path fill="#FFFFFF" d="M168.7,82.5c-1,0-1.8-2-1.8-4.6c0-2.5,0.8-4.6,1.8-4.6s1.8,2.1,1.8,4.6
						C170.4,80.5,169.6,82.5,168.7,82.5z M168.7,73.4c-0.9,0-1.7,2-1.7,4.5c0,2.5,0.7,4.5,1.7,4.5s1.7-2,1.7-4.5
						C170.3,75.4,169.6,73.4,168.7,73.4z"/>
				</g>
				<g>
					
						<linearGradient id="SVGID_27_" gradientUnits="userSpaceOnUse" x1="32.9699" y1="93.3687" x2="32.9699" y2="84.2472" gradientTransform="matrix(-1 0 0 1 212 0)">
						<stop  offset="0" style="stop-color:#FFFFFF"/>
						<stop  offset="1" style="stop-color:#231F20"/>
					</linearGradient>
					<ellipse fill="url(#SVGID_27_)" cx="179" cy="88.8" rx="1.7" ry="4.6"/>
					<path fill="#FFFFFF" d="M179,93.4c-1,0-1.8-2.1-1.8-4.6c0-2.5,0.8-4.6,1.8-4.6c1,0,1.8,2.1,1.8,4.6
						C180.8,91.4,180,93.4,179,93.4z M179,84.3c-0.9,0-1.7,2-1.7,4.5c0,2.5,0.7,4.5,1.7,4.5c0.9,0,1.7-2,1.7-4.5
						C180.7,86.3,180,84.3,179,84.3z"/>
				</g>
				<g>
					
						<linearGradient id="SVGID_28_" gradientUnits="userSpaceOnUse" x1="27.3254" y1="71.8411" x2="27.3254" y2="62.7196" gradientTransform="matrix(-1 0 0 1 212 0)">
						<stop  offset="0" style="stop-color:#FFFFFF"/>
						<stop  offset="1" style="stop-color:#231F20"/>
					</linearGradient>
					<ellipse fill="url(#SVGID_28_)" cx="184.7" cy="67.3" rx="1.7" ry="4.6"/>
					<path fill="#FFFFFF" d="M184.7,71.9c-1,0-1.8-2.1-1.8-4.6c0-2.5,0.8-4.6,1.8-4.6s1.8,2.1,1.8,4.6
						C186.4,69.8,185.7,71.9,184.7,71.9z M184.7,62.8c-0.9,0-1.7,2-1.7,4.5c0,2.5,0.7,4.5,1.7,4.5s1.7-2,1.7-4.5
						C186.3,64.8,185.6,62.8,184.7,62.8z"/>
				</g>
			</g>
			<path fill="none" d="M176,0.2h6.6c7.9,0,14.4,22.3,14.4,49.8c0,27.5-6.4,49.8-14.4,49.8H176c-7.9,0-14.4-22.3-14.4-49.8
				C161.6,22.5,168.1,0.2,176,0.2z"/>
			
				<linearGradient id="SVGID_29_" gradientUnits="userSpaceOnUse" x1="25.5014" y1="20.3839" x2="25.5014" y2="99.6523" gradientTransform="matrix(-1 0 0 1 212 0)">
				<stop  offset="0" style="stop-color:#FFFFFF"/>
				<stop  offset="1" style="stop-color:#231F20"/>
			</linearGradient>
			<path fill="url(#SVGID_29_)" d="M190.4,50c0-27.5-6.4-49.8-14.4-49.8h6.6c7.9,0,14.4,22.3,14.4,49.8c0,27.5-6.4,49.8-14.4,49.8
				H176C183.9,99.8,190.4,77.5,190.4,50z"/>
			<linearGradient id="SVGID_30_" gradientUnits="userSpaceOnUse" x1="186.6028" y1="98.44" x2="186.6028" y2="1.72">
				<stop  offset="0" style="stop-color:#FFFFFF"/>
				<stop  offset="1" style="stop-color:#D1D3D4"/>
			</linearGradient>
			<path fill="url(#SVGID_30_)" d="M176,0.4c7.8,0,14.2,22.2,14.2,49.6s-6.4,49.6-14.2,49.6v0.4h6.6c8,0,14.6-22.4,14.6-50
				c0-27.6-6.5-50-14.6-50H176V0.4z M182.6,99.6c0,0-2.8,0-4.8,0c7.2-3.1,12.7-24.2,12.7-49.6c0-25.4-5.6-46.5-12.7-49.6
				c1.9,0,4.8,0,4.8,0c7.8,0,14.2,22.2,14.2,49.6S190.4,99.6,182.6,99.6z"/>
			<linearGradient id="SVGID_31_" gradientUnits="userSpaceOnUse" x1="179.3111" y1="20.26" x2="179.3111" y2="99.86">
				<stop  offset="5.618000e-03" style="stop-color:#DCDDDE"/>
				<stop  offset="0.236" style="stop-color:#FFFFFF"/>
				<stop  offset="1" style="stop-color:#231F20"/>
			</linearGradient>
			<path fill="url(#SVGID_31_)" d="M176,0c-8,0-14.6,22.4-14.6,50c0,27.6,6.5,50,14.6,50h6.6c8,0,14.6-22.4,14.6-50
				c0-27.6-6.5-50-14.6-50H176z M182.6,99.6H176c-7.8,0-14.2-22.2-14.2-49.6S168.2,0.4,176,0.4h6.6c7.8,0,14.2,22.2,14.2,49.6
				S190.4,99.6,182.6,99.6z"/>
			<linearGradient id="SVGID_32_" gradientUnits="userSpaceOnUse" x1="176.0101" y1="90.71" x2="176.0101" y2="1.42">
				<stop  offset="0" style="stop-color:#FFFFFF"/>
				<stop  offset="1" style="stop-color:#D1D3D4"/>
			</linearGradient>
			<path fill="url(#SVGID_32_)" d="M176,0c-8,0-14.6,22.4-14.6,50c0,27.6,6.5,50,14.6,50c8,0,14.6-22.4,14.6-50
				C190.6,22.4,184.1,0,176,0z M176,99.6c-7.8,0-14.2-22.2-14.2-49.6S168.2,0.4,176,0.4c7.8,0,14.2,22.2,14.2,49.6
				S183.8,99.6,176,99.6z"/>
		</g>
	</g>
	<g>
		<path fill="#00539F" d="M91.9,55.4l-0.4,2.2H74c-1.2,0-2-1-1.7-2.2l7-36.1c0,0,0.8-3.2-2.6-3.2l0.4-1.9h33.6c0,0,9.5-0.3,8.8,8.8
			c-0.7,9.1-3.7,14.5-10.7,15.5c0,0,3.3,6,4.5,8c1.3,2,3.1,1.4,3.1,1.4h1.7l-1.4,7.4c-0.2,1.2-1.4,2.2-2.6,2.2h-10.2
			c-1.2,0-2.6-1-3.2-2.2l-7.9-17.2h-0.5l-2.8,14.4C88.9,55.1,91.9,55.4,91.9,55.4z M100,22.6h-4.6L93.7,31h4.8c4,0,4.7-3.2,4.8-3.9
			C103.3,27.1,104.8,22.6,100,22.6z"/>
		<path fill="#00539F" d="M124.5,14.2l-0.4,1.9c3.4,0,2.6,3.2,2.6,3.2l-7,36.1c-0.2,1.2,0.5,2.2,1.7,2.2h17.5l0.4-2.2
			c0,0-3-0.3-2.4-2.8l2.8-14.4l0,0l0,0c4,0,12.3,0,14.3,0c2.5,0,3.1-2.6,3.1-2.6l1.1-5.8h-16.8l1.4-7.1c3.8,0,12.7,0,14.6,0
			c2.5,0,3.1-2.6,3.1-2.6l1.1-5.8H124.5z"/>
		<path fill="#00539F" d="M131.6,59.6l-0.2,1.2c2,0,1.6,1.9,1.6,1.9l-3.4,21.5c-0.1,0.7,0.4,1.3,1.1,1.3l3.2,0l3.6,0l3.7,0.1
			c0.7,0,1.4-0.6,1.5-1.3l1-6l-1,0c0,0-0.3,1.6-1.5,1.5c-0.8,0-3.2,0-4.5-0.1l0.9-5.8l0,0c2.4,0,2.6,0,3.7,0.1
			c1.5,0,1.8-1.6,1.8-1.6l0.6-3.4l-5.2-0.1l0.7-4.2c2.3,0,2.8,0,3.9,0.1c1.5,0,1.8-1.6,1.8-1.6l0.6-3.4L131.6,59.6z"/>
		<path fill="#00539F" d="M150.8,80c-1.4,0-3.3,0-4.1-0.1c-1.2,0-1-1.6-1-1.6l-1,0l-0.9,6c-0.1,0.7,0.4,1.3,1.1,1.3
			c0.6,0,7.6,0.1,8.2,0.1c0.6,0,3.4-1.3,4.3-5.2c0.8-4,1.7-8-1.1-9.9c-2.8-1.9-3.9-2.6-3.7-3.8c0.2-1,0.5-1.8,1.4-1.7
			c1.3,0,2.5,0,2.5,0l1,0c0,0,1,0,1.2-1c0.3-0.9,0.9-4.3,0.9-4.3s-7.6-0.2-8.1-0.2c-1,0-3.3,0.9-3.9,3c-0.6,2.1-2.5,8.5-0.1,10.5
			c2.5,1.9,4.7,3.3,4.5,4.7C152,79,151.6,80,150.8,80z"/>
		<path fill="#00539F" d="M112.2,61.9l-2.8,17.6c1.4,0,2.5,0,3.3,0c1.2,0,1.5-1.5,1.5-1.5l1,0l-1,6c-0.1,0.7-0.8,1.3-1.5,1.3l-2.5,0
			l-3.6,0l-3.2,0c-0.7,0-1.2-0.6-1.1-1.3l3.4-21.5c0,0,0.4-1.9-1.6-1.9l0.2-1.2c0,0,5.6,0.1,6,0.1C110.8,59.4,112.5,59.8,112.2,61.9
			z"/>
		<path fill="#00539F" d="M100.9,84.2c0,0-1.7-0.2-1.7-1.7l0-21.9c0-0.8-0.8-1-1.2-1c-0.1,0-0.4,0-1,0h-5.2h-2.2l-0.3,1.2
			c2,0,1.1,1.9,1.1,1.9l-8.1,21.5c-0.3,0.7,0.1,1.3,0.8,1.3h5.7l0.4-1.3c0,0-1.7-0.2-1.2-1.7l1.2-3.1h4.6l0,4.8
			c0,0.7,0.6,1.3,1.3,1.3h5.7L100.9,84.2z M91.1,74.5l2.8-7.4l0,7.4H91.1z"/>
		<path fill="#00539F" d="M79.5,83.7l8.7-23.1c0.3-0.8-0.5-1-0.8-1s-6.2,0-6.2,0l-0.3,1.2c2,0,1.2,1.9,1.2,1.9l-4.6,12.1l0-14.2
			c0-0.8-0.8-1-1.2-1c-0.3,0-6.2,0-6.2,0l0.1,1.2c2,0,1.9,1.9,1.9,1.9l0,21.5c0,0.7,0.6,1.3,1.3,1.3c0,0,3.9,0,4.3,0
			C78.3,85.5,79.1,84.9,79.5,83.7z"/>
		<path fill="#00539F" d="M123.4,83.7l8.7-23.1c0.3-0.8-0.5-1-0.8-1c-0.3,0-6.2,0-6.2,0l-0.3,1.2c2,0,1.2,1.9,1.2,1.9l-4.6,12.1
			l0-14.2c0-0.8-0.8-1-1.2-1c-0.3,0-6.2,0-6.2,0l0.1,1.2c2,0,1.9,1.9,1.9,1.9l0,21.5c0,0.7,0.6,1.3,1.3,1.3c0,0,3.9,0,4.3,0
			C122.2,85.5,122.9,84.9,123.4,83.7z"/>
	</g>
</g>
</svg>
