<svg width="133" height="141" viewBox="0 0 133 141" fill="none" xmlns="http://www.w3.org/2000/svg">
<path d="M102.427 36.7742H94.3753L70.6226 0V26.908C68.5674 26.9091 66.5967 27.9489 65.1436 29.7989C63.6904 31.649 62.8736 34.1579 62.8727 36.7742H47.0712L70.7232 73.5484V46.5123C68.951 46.079 67.3549 44.8661 66.2141 43.0859C65.0734 41.3057 64.4606 39.0715 64.4831 36.7742C64.4969 34.3137 65.2234 31.9463 66.5235 30.1256C67.8236 28.305 69.6058 27.1592 71.5284 26.908C73.451 27.1592 75.2332 28.305 76.5333 30.1256C77.8334 31.9463 78.56 34.3137 78.5737 36.7742H94.2746L74.7491 67.2699L78.8756 73.5484L105.346 36.7742L78.8756 0L102.427 36.7742Z" fill="white"/>
<path d="M62.4706 0L36 36.7742L62.4706 73.5484L38.8182 36.7742H47.0708L66.5962 6.40671L62.4706 0Z" fill="white"/>
<path d="M14.8389 124.962H6.75293V130.045H16.3037V134H1.61133V112.672H16.333V116.642H6.75293V121.139H14.8389V124.962ZM19.501 134V118.15H26.2979C28.4756 118.15 30.1406 118.531 31.293 119.293C32.4551 120.055 33.0361 121.153 33.0361 122.589C33.0361 123.321 32.7822 123.98 32.2744 124.566C31.7666 125.143 31.0244 125.587 30.0479 125.899C31.3076 126.114 32.2793 126.534 32.9629 127.159C33.6465 127.774 33.9883 128.546 33.9883 129.474C33.9883 130.968 33.4219 132.096 32.2891 132.857C31.166 133.609 29.5449 133.99 27.4258 134H19.501ZM24.4521 127.54V130.221H27.3379C27.9531 130.221 28.3926 130.113 28.6562 129.898C28.9199 129.684 29.0518 129.356 29.0518 128.917C29.0518 128.038 28.5439 127.579 27.5283 127.54H24.4521ZM24.4521 124.493H26.4883C27.084 124.493 27.499 124.396 27.7334 124.2C27.9775 123.995 28.0996 123.697 28.0996 123.307C28.0996 122.799 27.9531 122.442 27.6602 122.237C27.3672 122.032 26.9131 121.93 26.2979 121.93H24.4521V124.493ZM51.7314 126.192C51.7314 128.653 51.1748 130.621 50.0615 132.096C48.958 133.561 47.4639 134.293 45.5791 134.293C44.124 134.293 42.9277 133.761 41.9902 132.696V140.094H37.0537V118.15H41.668L41.8145 119.615C42.7617 118.443 44.0068 117.857 45.5498 117.857C47.5029 117.857 49.0215 118.58 50.1055 120.025C51.1895 121.461 51.7314 123.438 51.7314 125.958V126.192ZM46.7949 125.885C46.7949 123.072 45.9746 121.666 44.334 121.666C43.1621 121.666 42.3809 122.086 41.9902 122.926V129.166C42.4199 130.045 43.2109 130.484 44.3633 130.484C45.9355 130.484 46.7461 129.127 46.7949 126.412V125.885ZM54.2988 125.929C54.2988 124.347 54.6064 122.94 55.2217 121.71C55.8369 120.47 56.7207 119.518 57.873 118.854C59.0254 118.189 60.3779 117.857 61.9307 117.857C64.3037 117.857 66.1738 118.595 67.541 120.069C68.9082 121.534 69.5918 123.531 69.5918 126.061V126.236C69.5918 128.707 68.9033 130.67 67.5264 132.125C66.1592 133.57 64.3037 134.293 61.96 134.293C59.7041 134.293 57.8926 133.619 56.5254 132.271C55.1582 130.914 54.4209 129.078 54.3135 126.764L54.2988 125.929ZM59.2354 126.236C59.2354 127.701 59.4648 128.775 59.9238 129.459C60.3828 130.143 61.0615 130.484 61.96 130.484C63.7178 130.484 64.6162 129.132 64.6553 126.427V125.929C64.6553 123.087 63.7471 121.666 61.9307 121.666C60.2803 121.666 59.3867 122.892 59.25 125.343L59.2354 126.236ZM80.9482 119.762L84.4346 112.672H90.3086L84.3467 123.248L90.4697 134H84.5371L80.9482 126.778L77.3594 134H71.4414L77.5498 123.248L71.6025 112.672H77.4619L80.9482 119.762ZM102.148 118.15H107.1V134H102.148V124.771L97.7979 134H92.832V118.15H97.7979V127.35L102.148 118.15ZM120.668 128.551L124.257 118.15H130.468V134H125.517V125.211L122.323 134H119.042L116.024 125.68V134H111.073V118.15H117.138L120.668 128.551Z" fill="white"/>
</svg>
