<svg width="116" height="146" viewBox="0 0 116 146" fill="none" xmlns="http://www.w3.org/2000/svg">
<path fill-rule="evenodd" clip-rule="evenodd" d="M97.1559 33.9154L68.4469 38.2243C67.761 38.3265 67.2446 37.7267 67.2849 37.0408L68.1242 21.7068C68.2291 19.8079 69.3131 18.8316 70.7871 18.611L89.1616 15.8541C90.6357 15.6308 91.9564 16.2441 92.6154 18.03L97.9226 32.4387C98.1593 33.0869 97.8392 33.8132 97.1559 33.9154ZM76.2207 74.5594L63.0699 48.6764C62.7606 48.0605 63.1667 47.38 63.8311 47.1971L78.6469 43.1599C80.4814 42.6596 81.751 43.3804 82.4262 44.7091L90.8401 61.2723C91.5153 62.601 91.3485 64.048 89.861 65.2369L77.8615 74.8176C77.3235 75.2479 76.53 75.1753 76.2207 74.5594ZM30.6946 67.1654L51.3689 46.7829C51.8585 46.2987 52.6332 46.4816 53.0071 47.0599L61.3538 59.949C62.384 61.5439 62.0827 62.9722 61.0229 64.0185L47.7914 77.0635C46.7316 78.1098 45.3006 78.3895 43.7163 77.3325L30.9474 68.8061C30.3745 68.4242 30.205 67.6496 30.6946 67.1654ZM23.7924 21.7983L49.5883 35.1257C50.1989 35.4404 50.2661 36.2339 49.833 36.7665L40.1656 48.7006C38.974 50.1773 37.5215 50.336 36.1954 49.6501L19.6903 41.1238C18.3642 40.4379 17.6541 39.1657 18.1679 37.334L22.3076 22.546C22.4932 21.8817 23.1791 21.4809 23.7924 21.7983ZM64.9205 1.18176L60.1541 29.819C60.0411 30.4995 59.3068 30.8061 58.6666 30.5559L44.3403 25.0205C42.565 24.3374 41.9732 23.0033 42.218 21.5347L45.271 3.2071C45.5131 1.73853 46.5057 0.67072 48.4047 0.598098L63.7558 0.000985066C64.439 -0.0259119 65.0335 0.501269 64.9205 1.18176Z" fill="#FFCB08"/>
<path d="M19.5264 139H14.3848V121.642H6.72363V139H1.58203V117.672H19.5264V139ZM41.7959 128.775C41.7959 130.855 41.4102 132.696 40.6387 134.298C39.8672 135.899 38.7686 137.135 37.3428 138.004C35.9268 138.863 34.3105 139.293 32.4941 139.293C30.6777 139.293 29.0664 138.878 27.6602 138.048C26.2539 137.208 25.1553 136.012 24.3643 134.459C23.583 132.906 23.1729 131.124 23.1338 129.112V127.911C23.1338 125.821 23.5146 123.98 24.2764 122.389C25.0479 120.787 26.1465 119.552 27.5723 118.683C29.0078 117.813 30.6387 117.379 32.4648 117.379C34.2715 117.379 35.8828 117.809 37.2988 118.668C38.7148 119.527 39.8135 120.753 40.5947 122.345C41.3857 123.927 41.7861 125.743 41.7959 127.794V128.775ZM36.5664 127.882C36.5664 125.763 36.21 124.156 35.4971 123.062C34.7939 121.959 33.7832 121.407 32.4648 121.407C29.8867 121.407 28.5244 123.341 28.3779 127.208L28.3633 128.775C28.3633 130.865 28.71 132.472 29.4033 133.595C30.0967 134.718 31.127 135.279 32.4941 135.279C33.793 135.279 34.7939 134.728 35.4971 133.624C36.2002 132.521 36.5566 130.934 36.5664 128.863V127.882ZM62.9229 117.672V139H57.7812V121.642H52.9912L52.6396 128.805C52.4932 131.275 52.1514 133.248 51.6143 134.723C51.0771 136.197 50.3105 137.276 49.3145 137.96C48.3281 138.634 46.9805 138.98 45.2715 139H43.8945V135.045L44.6123 134.972C45.6377 134.825 46.3799 134.2 46.8389 133.097C47.2979 131.983 47.5957 130.113 47.7324 127.486L48.0986 117.672H62.9229ZM93.1904 128.775C93.1904 130.855 92.8047 132.696 92.0332 134.298C91.2617 135.899 90.1631 137.135 88.7373 138.004C87.3213 138.863 85.7051 139.293 83.8887 139.293C82.248 139.293 80.7686 138.951 79.4502 138.268C78.1416 137.584 77.0723 136.598 76.2422 135.309C75.4121 134.01 74.8848 132.501 74.6602 130.782H72.4482V139H67.3213V117.672H72.4482V126.959H74.5576C74.6748 125.035 75.1289 123.346 75.9199 121.891C76.7207 120.436 77.8096 119.322 79.1865 118.551C80.5635 117.77 82.1211 117.379 83.8594 117.379C85.666 117.379 87.2773 117.809 88.6934 118.668C90.1094 119.527 91.208 120.753 91.9893 122.345C92.7803 123.927 93.1807 125.743 93.1904 127.794V128.775ZM87.9609 127.882C87.9609 125.763 87.6045 124.156 86.8916 123.062C86.1885 121.959 85.1777 121.407 83.8594 121.407C81.2812 121.407 79.9189 123.341 79.7725 127.208L79.7578 128.775C79.7578 130.865 80.1045 132.472 80.7979 133.595C81.4912 134.718 82.5215 135.279 83.8887 135.279C85.1875 135.279 86.1885 134.728 86.8916 133.624C87.5947 132.521 87.9512 130.934 87.9609 128.863V127.882ZM114.566 131.778C114.498 133.263 114.098 134.576 113.365 135.719C112.633 136.852 111.603 137.73 110.274 138.355C108.956 138.98 107.447 139.293 105.748 139.293C102.945 139.293 100.738 138.38 99.127 136.554C97.5156 134.728 96.71 132.149 96.71 128.819V127.765C96.71 125.675 97.0713 123.849 97.7939 122.286C98.5264 120.714 99.5762 119.503 100.943 118.653C102.311 117.794 103.893 117.364 105.689 117.364C108.277 117.364 110.357 118.048 111.93 119.415C113.502 120.772 114.396 122.647 114.61 125.04H109.483C109.444 123.741 109.117 122.809 108.502 122.242C107.887 121.676 106.949 121.393 105.689 121.393C104.41 121.393 103.473 121.871 102.877 122.828C102.281 123.785 101.969 125.313 101.939 127.413V128.922C101.939 131.197 102.223 132.823 102.789 133.8C103.365 134.776 104.352 135.265 105.748 135.265C106.93 135.265 107.833 134.986 108.458 134.43C109.083 133.873 109.415 132.989 109.454 131.778H114.566Z" fill="white"/>
</svg>
