<svg width="86" height="86" viewBox="0 0 86 86" fill="none" xmlns="http://www.w3.org/2000/svg">
<g clip-path="url(#clip0)">
<path d="M53.9777 10.7157C44.518 5.9356 33.1228 7.76327 25.6229 15.2634C16.9061 23.98 16.0337 37.8787 23.5936 47.593C23.8609 47.9364 24.2603 48.1161 24.6641 48.1161C24.955 48.1161 25.2481 48.0229 25.4955 47.8302C26.0863 47.3705 26.1924 46.519 25.7329 45.9283C19.0109 37.291 19.7878 24.9319 27.5397 17.1799C34.2098 10.5096 44.343 8.88395 52.7555 13.1347C53.4234 13.4727 54.2387 13.2043 54.5763 12.5363C54.9138 11.8683 54.646 11.0531 53.9777 10.7157Z" fill="white"/>
<path d="M64.7997 21.5402C64.4621 20.8722 63.6473 20.6041 62.9788 20.9414C62.3107 21.2788 62.0425 22.0938 62.3799 22.7622C66.6277 31.1734 65.0013 41.3052 58.3327 47.9736C50.5807 55.7253 38.2217 56.502 29.5844 49.7804C28.9935 49.3209 28.1422 49.427 27.6825 50.0176C27.2228 50.6083 27.3291 51.4598 27.9198 51.9195C32.3448 55.3632 37.6377 57.057 42.9137 57.057C49.2204 57.057 55.5033 54.6364 60.2496 49.8901C67.7479 42.392 69.5764 30.999 64.7997 21.5402Z" fill="white"/>
<path d="M61.2985 16.3783C60.9627 15.9983 60.6099 15.6231 60.25 15.2633C59.89 14.9033 59.515 14.5506 59.135 14.2148C58.5742 13.719 57.7175 13.772 57.2222 14.3329C56.7262 14.8936 56.7789 15.75 57.3398 16.2457C57.6782 16.5447 58.0125 16.8591 58.3333 17.1798C58.6538 17.5006 58.9682 17.8347 59.2674 18.1732C59.5351 18.4762 59.9083 18.6309 60.2834 18.6309C60.6024 18.6309 60.9225 18.5188 61.1804 18.2911C61.7414 17.7956 61.7941 16.9391 61.2985 16.3783Z" fill="white"/>
<path d="M74.9249 35.0064C75.8286 33.5237 75.8286 31.6821 74.9246 30.1998L73.1416 27.276C72.9068 26.8906 72.8159 26.4331 72.8861 25.9876L73.4176 22.611C73.6885 20.8901 72.9815 19.1847 71.5729 18.16L68.8097 16.15C68.4444 15.8842 68.1847 15.4963 68.0784 15.0572L67.2736 11.7316C66.8651 10.0424 65.5618 8.73927 63.8727 8.33043L60.547 7.52553C60.1079 7.4192 59.7197 7.15952 59.4542 6.79419L57.4439 4.03026C56.4193 2.62168 54.7138 1.91436 52.9934 2.18546L49.6156 2.71692C49.1701 2.78696 48.7124 2.69626 48.3274 2.46144L45.4031 0.677943C43.9206 -0.226065 42.079 -0.225897 40.5965 0.677943L37.6725 2.46093C37.2875 2.69592 36.8301 2.78629 36.3842 2.71641L33.0073 2.18496C31.287 1.91419 29.5813 2.62117 28.5566 4.02976L26.5467 6.79301C26.2808 7.15835 25.8928 7.41803 25.4536 7.52435L22.128 8.32909C20.4391 8.73759 19.1356 10.0409 18.7268 11.7299L17.9219 15.0557C17.8156 15.4948 17.556 15.883 17.1905 16.1485L14.4266 18.1588C13.018 19.1832 12.3112 20.8884 12.5818 22.6093L13.1133 25.9873C13.1833 26.4329 13.0926 26.8905 12.8578 27.2755L11.0745 30.2C10.1708 31.6825 10.1708 33.5241 11.0746 35.0064L12.8576 37.9304C13.0924 38.3157 13.1833 38.7733 13.1131 39.2187L12.5816 42.5956C12.3107 44.3162 13.0177 46.0218 14.4263 47.0464L17.1895 49.0563C17.5549 49.3219 17.8145 49.71 17.9209 50.1491L18.7256 53.4747C19.1341 55.164 20.4374 56.4671 22.1265 56.8759L23.5152 57.212L14.1167 78.1769C13.917 78.6225 13.9723 79.1409 14.2617 79.5342C14.5509 79.9276 15.0291 80.1351 15.5142 80.0769L23.0765 79.1728L27.4329 85.4197C27.6879 85.785 28.104 85.9997 28.5442 85.9997C28.5864 85.9997 28.629 85.9977 28.6714 85.9938C29.1575 85.9481 29.5816 85.6443 29.7813 85.199L39.3799 63.7865L40.5961 64.5281C41.3374 64.9801 42.1683 65.206 42.9994 65.206C43.8306 65.206 44.6615 64.9799 45.4027 64.5281L46.6628 63.7598L56.2735 85.199C56.4732 85.6446 56.8972 85.9481 57.3834 85.9938C57.4259 85.9978 57.4684 85.9999 57.5106 85.9999C57.9508 85.9999 58.3671 85.7852 58.6219 85.4199L62.9783 79.1729L70.5406 80.0771C71.0254 80.1347 71.5039 79.9278 71.7931 79.5344C72.0824 79.141 72.138 78.6227 71.9381 78.177L62.5347 57.2006L63.8712 56.8773C65.5602 56.4688 66.8636 55.1655 67.2724 53.4764L68.0773 50.1506C68.1837 49.7116 68.4433 49.3234 68.8087 49.0578L71.5726 47.0476C72.9812 46.0231 73.688 44.3179 73.4174 42.5971L72.886 39.219C72.8159 38.7734 72.9066 38.3159 73.1414 37.9309L74.9249 35.0064ZM28.2871 81.9061L24.8346 76.9554C24.5484 76.5449 24.0589 76.3252 23.5621 76.385L17.5691 77.1015L26.132 57.9996C26.2886 58.1147 26.429 58.2526 26.5447 58.412L28.555 61.1759C28.746 61.4385 28.9606 61.6765 29.1946 61.8884L24.6875 71.9425C24.3814 72.6257 24.6868 73.4274 25.3698 73.7336C25.5498 73.8144 25.7381 73.8525 25.9232 73.8525C26.4409 73.8525 26.9354 73.5542 27.1607 73.0513L31.6518 63.033C32.0937 63.0936 32.5488 63.0926 33.0055 63.0207L36.3833 62.4893C36.5856 62.4575 36.79 62.4604 36.989 62.4933L28.2871 81.9061ZM68.486 77.1012L62.4929 76.385C61.9955 76.3254 61.5066 76.5449 61.2204 76.9554L57.7679 81.9061L49.0623 62.4857C49.2449 62.4609 49.4311 62.4609 49.6154 62.4898L52.9921 63.0212C53.4673 63.096 53.9408 63.0936 54.3995 63.0253L58.894 73.0516C59.1196 73.5547 59.6137 73.8529 60.1314 73.8529C60.3167 73.8529 60.505 73.8147 60.6849 73.7339C61.3678 73.4279 61.6734 72.6258 61.3672 71.9429L56.8429 61.8505C57.0611 61.6479 57.2628 61.4237 57.4427 61.1764L59.4527 58.4132C59.5793 58.239 59.7345 58.0897 59.9089 57.9689L68.486 77.1012ZM72.6105 33.5951L70.8272 36.5196C70.2586 37.4525 70.0385 38.5608 70.2084 39.6401L70.7398 43.018C70.8515 43.7283 70.5596 44.4323 69.9782 44.8552L67.2142 46.8657C66.3295 47.5093 65.7002 48.4494 65.4429 49.5128L64.638 52.8386C64.4692 53.5359 63.9314 54.0739 63.234 54.2427L59.9082 55.0474C58.8446 55.3047 57.9043 55.9339 57.2607 56.8188L55.2507 59.5821C54.8278 60.1637 54.124 60.4553 53.4133 60.3435L50.0365 59.812C48.957 59.6422 47.8485 59.8619 46.9155 60.4308L43.9916 62.2138C43.3797 62.5867 42.6192 62.5867 42.0076 62.2138L39.0831 60.4306C38.3558 59.987 37.522 59.7559 36.6783 59.7559C36.4398 59.7559 36.2001 59.7744 35.9624 59.8118L32.5844 60.3433C31.8739 60.4552 31.1701 60.1631 30.7471 59.5817L28.7367 56.8178C28.0931 55.9331 27.1529 55.3039 26.0895 55.0466L22.7637 54.2417C22.0665 54.0729 21.5285 53.535 21.3597 52.8376L20.555 49.512C20.2976 48.4484 19.6686 47.508 18.7836 46.8643L16.0205 44.8542C15.439 44.4313 15.1472 43.7272 15.2591 43.0168L15.7905 39.64C15.9603 38.5604 15.7406 37.4522 15.1717 36.5191L13.3887 33.5949C13.0157 32.983 13.0157 32.2226 13.3887 31.6109L15.1721 28.6864C15.7408 27.7535 15.9607 26.6452 15.7909 25.5659L15.2594 22.188C15.1477 21.4777 15.4396 20.7737 16.021 20.3508L18.7851 18.3404C19.6698 17.6967 20.299 16.7566 20.5563 15.6932L21.3612 12.3674C21.53 11.6702 22.0678 11.1321 22.7653 10.9633L26.091 10.1586C27.1546 9.90127 28.0949 9.27206 28.7384 8.3872L30.7483 5.62395C31.1713 5.04244 31.875 4.75035 32.5857 4.86238L35.9626 5.39383C37.0423 5.56399 38.1507 5.34395 39.0836 4.77504L42.0074 2.99205C42.6193 2.61916 43.3799 2.61916 43.9915 2.99205L46.916 4.7752C47.8489 5.34428 48.9575 5.56415 50.0367 5.39417L53.4147 4.86272C54.1249 4.75135 54.829 5.04295 55.2519 5.62429L57.2623 8.38821C57.906 9.2729 58.8461 9.90211 59.9095 10.1594L63.2353 10.9643C63.9325 11.1332 64.4706 11.671 64.6394 12.3684L65.4441 15.694C65.7014 16.7576 66.3305 17.698 67.2155 18.3417L69.9787 20.3516C70.5603 20.7746 70.852 21.4787 70.7402 22.189L70.2087 25.5659C70.0389 26.6454 70.2586 27.7537 70.8275 28.6867L72.6105 31.6109C72.9837 32.2228 72.9837 32.9832 72.6105 33.5951Z" fill="white"/>
<path d="M58.8587 28.3863C58.56 27.4668 57.7781 26.8248 56.818 26.7109L48.663 25.7439L45.2233 18.287C44.8183 17.4092 43.9662 16.8638 42.9994 16.8638C42.0327 16.8638 41.1805 17.4092 40.7755 18.287L37.3358 25.7441L29.1808 26.7111C28.2207 26.825 27.4386 27.467 27.1401 28.3864C26.8415 29.3054 27.0968 30.2845 27.8063 30.9407L33.8355 36.5164L32.2351 44.5712C32.0468 45.5196 32.4157 46.4615 33.1979 47.0296C33.6294 47.343 34.1301 47.5018 34.634 47.5018C35.0437 47.5018 35.4552 47.397 35.8333 47.1853L42.9992 43.1744L50.1651 47.1853C51.0088 47.6576 52.0185 47.598 52.8007 47.0298C53.5829 46.4615 53.9518 45.5194 53.7633 44.5712L52.1629 36.5166L58.1922 30.9409C58.902 30.2846 59.1573 29.3057 58.8587 28.3863ZM49.7659 35.0417C49.4198 35.3617 49.265 35.8385 49.3567 36.3008L50.9944 44.5432L43.6612 40.4385C43.4556 40.3235 43.2275 40.2658 42.9992 40.2658C42.771 40.2658 42.543 40.3233 42.3373 40.4385L35.0041 44.5432L36.6418 36.3008C36.7338 35.8384 36.5788 35.3617 36.2326 35.0417L30.0628 29.3358L38.4085 28.3463C38.8764 28.2909 39.2821 27.9961 39.4796 27.5682L42.9994 19.9373L46.5192 27.5682C46.7167 27.9961 47.1222 28.2909 47.5903 28.3463L55.9357 29.3358L49.7659 35.0417Z" fill="white"/>
</g>
<defs>
<clipPath id="clip0">
<rect width="86" height="86" fill="white"/>
</clipPath>
</defs>
</svg>
