<svg width="86" height="70" viewBox="0 0 86 70" fill="none" xmlns="http://www.w3.org/2000/svg">
<path d="M68.5948 13.2745C69.2503 12.6084 69.2503 11.5297 68.5948 10.8656C67.938 10.1994 66.8751 10.1994 66.2196 10.8656C65.5629 11.5297 65.5629 12.6084 66.2196 13.2745C66.8751 13.9386 67.938 13.9386 68.5948 13.2745Z" fill="white"/>
<path d="M21.9179 16.8023C22.5734 16.1382 22.5734 15.0595 21.9179 14.3934C21.2612 13.7292 20.1982 13.7292 19.5428 14.3934C18.886 15.0595 18.886 16.1382 19.5428 16.8023C20.1982 17.4684 21.2612 17.4684 21.9179 16.8023Z" fill="white"/>
<path d="M12.033 26.6115L17.0603 21.5108C17.7164 20.8453 17.7157 19.7673 17.0603 19.1019C16.4041 18.4364 15.3405 18.4371 14.6844 19.1019L9.65717 24.2025C9.0017 24.868 9.0017 25.9467 9.65783 26.6115C10.3133 27.2769 11.3769 27.2769 12.033 26.6115Z" fill="white"/>
<path d="M74.136 21.6715C74.7922 22.3369 75.8557 22.3369 76.5119 21.6715C77.168 21.0067 77.168 19.928 76.5119 19.2625L73.161 15.8641C72.5049 15.1986 71.4413 15.1986 70.7852 15.8641C70.1297 16.5289 70.1297 17.6076 70.7852 18.273L74.136 21.6715Z" fill="white"/>
<path d="M85.5079 19.7733L66.5071 0.499196C65.8654 -0.15228 64.8287 -0.16825 64.168 0.463927C62.6924 1.87402 55.7564 8.49858 55.6561 8.59773C55.6501 8.60372 55.6436 8.60904 55.6377 8.61503C53.9947 10.2813 52.3774 11.024 50.3932 11.024C46.3371 11.024 43.2296 12.1858 40.6491 14.6646C38.5331 12.6324 36.1349 11.5816 32.788 11.2309L24.3909 2.71382C23.7348 2.04837 22.6712 2.04837 22.0151 2.71382L0.492103 24.5433C-0.146965 25.1907 -0.167961 26.2368 0.454704 26.9109C0.467826 26.9249 0.478981 26.9389 0.492103 26.9522C0.492103 26.9522 14.4978 41.1349 14.5175 41.1542L13.9244 41.7558C11.6279 44.0849 11.6266 47.8566 13.925 50.1877C15.0129 51.2897 16.5075 51.9445 18.1426 51.9279C18.1249 53.5642 18.7482 55.0794 19.8636 56.2107C20.9968 57.3599 22.5111 57.9695 24.0812 57.9529C24.0642 59.5879 24.6868 61.1024 25.8022 62.2337C26.8901 63.3357 28.3841 63.9905 30.0198 63.9739C30.0021 65.6102 30.6254 67.1254 31.7409 68.2567C34.0327 70.5811 37.7615 70.5811 40.054 68.2567L40.6484 67.6538L41.2429 68.2567C43.5347 70.5811 47.2635 70.5811 49.556 68.2567C50.6688 67.1281 51.2935 65.6155 51.2777 63.9772C52.8819 63.9938 54.3766 63.3676 55.4953 62.233C56.6566 61.0552 57.2288 59.5027 57.213 57.9555C58.8416 57.9728 60.3297 57.33 61.4333 56.2107C62.5506 55.0781 63.1727 53.5602 63.1543 51.9279C64.7152 51.9438 66.2328 51.3423 67.3725 50.187C69.6696 47.8573 69.6696 44.0862 67.3725 41.7558L66.78 41.1549C78.4913 29.2906 63.6766 44.3278 85.5079 22.1822C86.164 21.5168 86.164 20.4388 85.5079 19.7733ZM4.05553 25.7471L23.2033 6.32788L29.6563 12.8726L10.5125 32.2911L4.05553 25.7471ZM16.2995 47.7781C15.3153 46.7799 15.3153 45.1636 16.2995 44.1647L22.2388 38.1411C23.2217 37.1449 24.8194 37.1455 25.8016 38.1411C26.7877 39.1419 26.7877 40.7556 25.8016 41.7558L19.8643 47.7775C18.8814 48.773 17.2818 48.773 16.2995 47.7781ZM22.2388 53.8018C21.254 52.8023 21.2526 51.1866 22.2388 50.187L28.1768 44.1647C29.1629 43.1652 30.7547 43.1646 31.7409 44.1647C32.7231 45.1609 32.727 46.7779 31.7409 47.7775C31.7402 47.7781 31.7402 47.7781 31.7402 47.7788L25.8016 53.8018C24.8194 54.798 23.221 54.798 22.2388 53.8018ZM28.1768 59.8234C27.1926 58.8259 27.1926 57.2089 28.1768 56.2107L34.116 50.187C35.0983 49.1909 36.6959 49.1909 37.6795 50.1884C38.6492 51.1699 38.6781 52.787 37.6788 53.8011C37.6788 53.8011 37.6788 53.8011 37.6782 53.8018L31.7415 59.8228C30.7586 60.819 29.159 60.819 28.1768 59.8234ZM34.116 65.8478C33.1312 64.8483 33.1299 63.2325 34.116 62.233L40.054 56.2107C41.0388 55.2119 42.6319 55.2105 43.6174 56.2107C44.6088 57.2162 44.5944 58.8339 43.6174 59.8241L37.6788 65.8478C36.6959 66.8433 35.0983 66.8433 34.116 65.8478ZM47.1802 65.8478C46.1986 66.8439 44.6003 66.8439 43.6181 65.8478L43.0236 65.2449L45.9933 62.233C46.194 62.0294 46.3751 61.8118 46.5431 61.5862L47.1795 62.2324C47.1802 62.2324 47.1802 62.2324 47.1808 62.233L47.1815 62.2337C48.1664 63.2325 48.1664 64.8476 47.1802 65.8478ZM64.9973 47.7775C64.0145 48.773 62.4155 48.773 61.4333 47.7775L53.7133 39.9484C53.0571 39.283 51.9935 39.283 51.3374 39.9484C50.6819 40.6132 50.6819 41.6919 51.3374 42.3574L59.0581 50.1877C60.0429 51.1859 60.0436 52.8016 59.0574 53.8018C58.0713 54.8019 56.4775 54.798 55.4953 53.8018L47.7753 45.9701C47.1198 45.3053 46.0562 45.3053 45.4001 45.9701C44.744 46.6355 44.744 47.7142 45.3995 48.3797L53.1195 56.2107C54.1017 57.2069 54.1017 58.8279 53.1195 59.8234C52.6444 60.3059 52.0113 60.5721 51.3374 60.5721C49.7411 60.5721 49.2267 59.2971 47.713 57.9548C47.6979 56.3857 47.089 54.9131 45.9939 53.8024C44.8798 52.6712 43.3878 52.0397 41.7757 52.0556C41.7921 50.418 41.1668 48.9047 40.054 47.7775C38.8926 46.5996 37.3619 46.02 35.8364 46.036C35.8699 42.6761 33.187 39.9757 29.8984 40.0103C29.9148 38.3553 29.2771 36.8481 28.1768 35.7321C25.8849 33.4071 22.1555 33.4071 19.8636 35.7321L16.8927 38.7453L12.8903 34.698L32.6594 14.6447C35.1074 14.9282 36.7556 15.6422 38.2667 17.0669L33.5209 21.8795C30.9036 24.5359 30.9036 28.8587 33.5216 31.5165C36.1415 34.1717 40.4044 34.1723 43.0236 31.5158L47.7753 26.6973C50.846 29.8123 62.7586 41.8949 64.9967 44.1654C65.9789 45.1609 65.9789 46.7819 64.9973 47.7775ZM64.4042 38.7453L50.1505 24.2884L51.3381 23.0839C51.9942 22.4185 51.9942 21.3398 51.3381 20.6743C50.6819 20.0095 49.619 20.0095 48.9622 20.6743L40.6478 29.1076C39.3388 30.4352 37.2064 30.4352 35.8968 29.1076C34.5878 27.7787 34.5878 25.6166 35.8961 24.2884C37.6191 22.5416 41.0152 19.0979 42.7362 17.3531C44.7282 15.3328 47.0903 14.4311 50.3932 14.4311C52.7691 14.4311 54.8201 13.7071 56.7419 12.1739L73.4673 29.5774C62.5342 40.6372 64.6922 38.4538 64.4042 38.7453ZM75.8431 27.1678L59.2208 9.8714L65.2847 4.07732L81.9451 20.9778L75.8431 27.1678Z" fill="white"/>
</svg>
