<svg width="71" height="71" viewBox="0 0 71 71" fill="none" xmlns="http://www.w3.org/2000/svg">
<g clip-path="url(#clip0)">
<path d="M69.8167 11.2416H56.8V1.77489C56.8 1.12139 56.2702 0.591553 55.6167 0.591553H15.3833C14.7298 0.591553 14.2 1.12139 14.2 1.77489V18.3416H1.18333C0.529837 18.3416 0 18.8714 0 19.5249V68.0415C0 68.695 0.529837 69.2249 1.18333 69.2249C1.83683 69.2249 2.36667 68.695 2.36667 68.0415V20.7082H14.2V69.2249C14.2 69.8784 14.7298 70.4082 15.3833 70.4082H55.6167C56.2702 70.4082 56.8 69.8784 56.8 69.2249V13.6082H68.6333V68.0415C68.6333 68.695 69.1632 69.2249 69.8167 69.2249C70.4702 69.2249 71 68.695 71 68.0415V12.4249C71 11.7714 70.4702 11.2416 69.8167 11.2416ZM34.3167 68.0415H29.5833V57.3915H34.3167V68.0415ZM41.4167 68.0415H36.6833V57.3915H41.4167V68.0415ZM54.4333 68.0415H43.7833V56.2082C43.7833 55.5547 43.2535 55.0249 42.6 55.0249H28.4C27.7465 55.0249 27.2167 55.5547 27.2167 56.2082V68.0415H16.5667V2.95822H54.4333V68.0415Z" fill="#FC7D34"/>
<path d="M27.2169 5.32495H20.1169C19.4634 5.32495 18.9336 5.85479 18.9336 6.50828V13.6083C18.9336 14.2618 19.4634 14.7916 20.1169 14.7916H27.2169C27.8704 14.7916 28.4003 14.2618 28.4003 13.6083V6.50828C28.4003 5.85479 27.8704 5.32495 27.2169 5.32495ZM26.0336 12.425H21.3003V7.69162H26.0336V12.425Z" fill="#FC7D34"/>
<path d="M39.0502 5.32495H31.9502C31.2967 5.32495 30.7668 5.85479 30.7668 6.50828V13.6083C30.7668 14.2618 31.2967 14.7916 31.9502 14.7916H39.0502C39.7037 14.7916 40.2335 14.2618 40.2335 13.6083V6.50828C40.2335 5.85479 39.7037 5.32495 39.0502 5.32495ZM37.8669 12.425H33.1335V7.69162H37.8669V12.425Z" fill="#FC7D34"/>
<path d="M50.8829 5.32495H43.7829C43.1294 5.32495 42.5996 5.85479 42.5996 6.50828V13.6083C42.5996 14.2618 43.1294 14.7916 43.7829 14.7916H50.8829C51.5364 14.7916 52.0663 14.2618 52.0663 13.6083V6.50828C52.0663 5.85479 51.5364 5.32495 50.8829 5.32495ZM49.6996 12.425H44.9663V7.69162H49.6996V12.425Z" fill="#FC7D34"/>
<path d="M27.2169 17.1582H20.1169C19.4634 17.1582 18.9336 17.688 18.9336 18.3415V25.4415C18.9336 26.095 19.4634 26.6249 20.1169 26.6249H27.2169C27.8704 26.6249 28.4003 26.095 28.4003 25.4415V18.3415C28.4003 17.688 27.8704 17.1582 27.2169 17.1582ZM26.0336 24.2582H21.3003V19.5249H26.0336V24.2582Z" fill="#FC7D34"/>
<path d="M39.0502 17.1582H31.9502C31.2967 17.1582 30.7668 17.688 30.7668 18.3415V25.4415C30.7668 26.095 31.2967 26.6249 31.9502 26.6249H39.0502C39.7037 26.6249 40.2335 26.095 40.2335 25.4415V18.3415C40.2335 17.688 39.7037 17.1582 39.0502 17.1582ZM37.8669 24.2582H33.1335V19.5249H37.8669V24.2582Z" fill="#FC7D34"/>
<path d="M50.8829 17.1582H43.7829C43.1294 17.1582 42.5996 17.688 42.5996 18.3415V25.4415C42.5996 26.095 43.1294 26.6249 43.7829 26.6249H50.8829C51.5364 26.6249 52.0663 26.095 52.0663 25.4415V18.3415C52.0663 17.688 51.5364 17.1582 50.8829 17.1582ZM49.6996 24.2582H44.9663V19.5249H49.6996V24.2582Z" fill="#FC7D34"/>
<path d="M27.2169 28.9917H20.1169C19.4634 28.9917 18.9336 29.5215 18.9336 30.175V37.275C18.9336 37.9285 19.4634 38.4584 20.1169 38.4584H27.2169C27.8704 38.4584 28.4003 37.9285 28.4003 37.275V30.175C28.4003 29.5215 27.8704 28.9917 27.2169 28.9917ZM26.0336 36.0917H21.3003V31.3584H26.0336V36.0917Z" fill="#FC7D34"/>
<path d="M39.0502 28.9917H31.9502C31.2967 28.9917 30.7668 29.5215 30.7668 30.175V37.275C30.7668 37.9285 31.2967 38.4584 31.9502 38.4584H39.0502C39.7037 38.4584 40.2335 37.9285 40.2335 37.275V30.175C40.2335 29.5215 39.7037 28.9917 39.0502 28.9917ZM37.8669 36.0917H33.1335V31.3584H37.8669V36.0917Z" fill="#FC7D34"/>
<path d="M50.8829 28.9917H43.7829C43.1294 28.9917 42.5996 29.5215 42.5996 30.175V37.275C42.5996 37.9285 43.1294 38.4584 43.7829 38.4584H50.8829C51.5364 38.4584 52.0663 37.9285 52.0663 37.275V30.175C52.0663 29.5215 51.5364 28.9917 50.8829 28.9917ZM49.6996 36.0917H44.9663V31.3584H49.6996V36.0917Z" fill="#FC7D34"/>
<path d="M27.2169 40.825H20.1169C19.4634 40.825 18.9336 41.3548 18.9336 42.0083V49.1083C18.9336 49.7618 19.4634 50.2916 20.1169 50.2916H27.2169C27.8704 50.2916 28.4003 49.7618 28.4003 49.1083V42.0083C28.4003 41.3548 27.8704 40.825 27.2169 40.825ZM26.0336 47.9249H21.3003V43.1916H26.0336V47.9249Z" fill="#FC7D34"/>
<path d="M39.0502 40.825H31.9502C31.2967 40.825 30.7668 41.3548 30.7668 42.0083V49.1083C30.7668 49.7618 31.2967 50.2916 31.9502 50.2916H39.0502C39.7037 50.2916 40.2335 49.7618 40.2335 49.1083V42.0083C40.2335 41.3548 39.7037 40.825 39.0502 40.825ZM37.8669 47.9249H33.1335V43.1916H37.8669V47.9249Z" fill="#FC7D34"/>
<path d="M50.8829 40.825H43.7829C43.1294 40.825 42.5996 41.3548 42.5996 42.0083V49.1083C42.5996 49.7618 43.1294 50.2916 43.7829 50.2916H50.8829C51.5364 50.2916 52.0663 49.7618 52.0663 49.1083V42.0083C52.0663 41.3548 51.5364 40.825 50.8829 40.825ZM49.6996 47.9249H44.9663V43.1916H49.6996V47.9249Z" fill="#FC7D34"/>
<path d="M7.09982 23.075H5.91649C5.26299 23.075 4.73315 23.6048 4.73315 24.2583V25.4416C4.73315 26.0951 5.26299 26.6249 5.91649 26.6249H7.09982C7.75332 26.6249 8.28315 26.0951 8.28315 25.4416V24.2583C8.28315 23.6048 7.75332 23.075 7.09982 23.075Z" fill="#FC7D34"/>
<path d="M11.8335 23.075H10.6501C9.99663 23.075 9.4668 23.6048 9.4668 24.2583V25.4416C9.4668 26.0951 9.99663 26.6249 10.6501 26.6249H11.8335C12.487 26.6249 13.0168 26.0951 13.0168 25.4416V24.2583C13.0168 23.6048 12.487 23.075 11.8335 23.075Z" fill="#FC7D34"/>
<path d="M7.09982 27.8081H5.91649C5.26299 27.8081 4.73315 28.3379 4.73315 28.9914V30.1748C4.73315 30.8283 5.26299 31.3581 5.91649 31.3581H7.09982C7.75332 31.3581 8.28315 30.8283 8.28315 30.1748V28.9914C8.28315 28.3379 7.75332 27.8081 7.09982 27.8081Z" fill="#FC7D34"/>
<path d="M11.8335 27.8081H10.6501C9.99663 27.8081 9.4668 28.3379 9.4668 28.9914V30.1748C9.4668 30.8283 9.99663 31.3581 10.6501 31.3581H11.8335C12.487 31.3581 13.0168 30.8283 13.0168 30.1748V28.9914C13.0168 28.3379 12.487 27.8081 11.8335 27.8081Z" fill="#FC7D34"/>
<path d="M7.09982 32.5415H5.91649C5.26299 32.5415 4.73315 33.0713 4.73315 33.7248V34.9082C4.73315 35.5617 5.26299 36.0915 5.91649 36.0915H7.09982C7.75332 36.0915 8.28315 35.5617 8.28315 34.9082V33.7248C8.28315 33.0713 7.75332 32.5415 7.09982 32.5415Z" fill="#FC7D34"/>
<path d="M11.8335 32.5415H10.6501C9.99663 32.5415 9.4668 33.0713 9.4668 33.7248V34.9082C9.4668 35.5617 9.99663 36.0915 10.6501 36.0915H11.8335C12.487 36.0915 13.0168 35.5617 13.0168 34.9082V33.7248C13.0168 33.0713 12.487 32.5415 11.8335 32.5415Z" fill="#FC7D34"/>
<path d="M7.09982 37.2749H5.91649C5.26299 37.2749 4.73315 37.8047 4.73315 38.4582V39.6416C4.73315 40.2951 5.26299 40.8249 5.91649 40.8249H7.09982C7.75332 40.8249 8.28315 40.2951 8.28315 39.6416V38.4582C8.28315 37.8047 7.75332 37.2749 7.09982 37.2749Z" fill="#FC7D34"/>
<path d="M11.8335 37.2749H10.6501C9.99663 37.2749 9.4668 37.8047 9.4668 38.4582V39.6416C9.4668 40.2951 9.99663 40.8249 10.6501 40.8249H11.8335C12.487 40.8249 13.0168 40.2951 13.0168 39.6416V38.4582C13.0168 37.8047 12.487 37.2749 11.8335 37.2749Z" fill="#FC7D34"/>
<path d="M7.09982 42.0083H5.91649C5.26299 42.0083 4.73315 42.5381 4.73315 43.1916V44.375C4.73315 45.0285 5.26299 45.5583 5.91649 45.5583H7.09982C7.75332 45.5583 8.28315 45.0285 8.28315 44.375V43.1916C8.28315 42.5381 7.75332 42.0083 7.09982 42.0083Z" fill="#FC7D34"/>
<path d="M11.8335 42.0083H10.6501C9.99663 42.0083 9.4668 42.5381 9.4668 43.1916V44.375C9.4668 45.0285 9.99663 45.5583 10.6501 45.5583H11.8335C12.487 45.5583 13.0168 45.0285 13.0168 44.375V43.1916C13.0168 42.5381 12.487 42.0083 11.8335 42.0083Z" fill="#FC7D34"/>
<path d="M7.09982 46.7417H5.91649C5.26299 46.7417 4.73315 47.2715 4.73315 47.925V49.1084C4.73315 49.7619 5.26299 50.2917 5.91649 50.2917H7.09982C7.75332 50.2917 8.28315 49.7619 8.28315 49.1084V47.925C8.28315 47.2715 7.75332 46.7417 7.09982 46.7417Z" fill="#FC7D34"/>
<path d="M11.8335 46.7417H10.6501C9.99663 46.7417 9.4668 47.2715 9.4668 47.925V49.1084C9.4668 49.7619 9.99663 50.2917 10.6501 50.2917H11.8335C12.487 50.2917 13.0168 49.7619 13.0168 49.1084V47.925C13.0168 47.2715 12.487 46.7417 11.8335 46.7417Z" fill="#FC7D34"/>
<path d="M7.09982 51.4749H5.91649C5.26299 51.4749 4.73315 52.0047 4.73315 52.6582V53.8415C4.73315 54.495 5.26299 55.0248 5.91649 55.0248H7.09982C7.75332 55.0248 8.28315 54.495 8.28315 53.8415V52.6582C8.28315 52.0047 7.75332 51.4749 7.09982 51.4749Z" fill="#FC7D34"/>
<path d="M11.8335 51.4749H10.6501C9.99663 51.4749 9.4668 52.0047 9.4668 52.6582V53.8415C9.4668 54.495 9.99663 55.0248 10.6501 55.0248H11.8335C12.487 55.0248 13.0168 54.495 13.0168 53.8415V52.6582C13.0168 52.0047 12.487 51.4749 11.8335 51.4749Z" fill="#FC7D34"/>
<path d="M7.09982 56.2083H5.91649C5.26299 56.2083 4.73315 56.7381 4.73315 57.3916V58.5749C4.73315 59.2284 5.26299 59.7582 5.91649 59.7582H7.09982C7.75332 59.7582 8.28315 59.2284 8.28315 58.5749V57.3916C8.28315 56.7381 7.75332 56.2083 7.09982 56.2083Z" fill="#FC7D34"/>
<path d="M11.8335 56.2083H10.6501C9.99663 56.2083 9.4668 56.7381 9.4668 57.3916V58.5749C9.4668 59.2284 9.99663 59.7582 10.6501 59.7582H11.8335C12.487 59.7582 13.0168 59.2284 13.0168 58.5749V57.3916C13.0168 56.7381 12.487 56.2083 11.8335 56.2083Z" fill="#FC7D34"/>
<path d="M7.09982 60.9414H5.91649C5.26299 60.9414 4.73315 61.4712 4.73315 62.1247V63.3081C4.73315 63.9616 5.26299 64.4914 5.91649 64.4914H7.09982C7.75332 64.4914 8.28315 63.9616 8.28315 63.3081V62.1247C8.28315 61.4712 7.75332 60.9414 7.09982 60.9414Z" fill="#FC7D34"/>
<path d="M11.8335 60.9414H10.6501C9.99663 60.9414 9.4668 61.4712 9.4668 62.1247V63.3081C9.4668 63.9616 9.99663 64.4914 10.6501 64.4914H11.8335C12.487 64.4914 13.0168 63.9616 13.0168 63.3081V62.1247C13.0168 61.4712 12.487 60.9414 11.8335 60.9414Z" fill="#FC7D34"/>
<path d="M65.0834 15.9749H60.3501C59.6966 15.9749 59.1667 16.5047 59.1667 17.1582V21.8915C59.1667 22.545 59.6966 23.0748 60.3501 23.0748H65.0834C65.7369 23.0748 66.2668 22.545 66.2668 21.8915V17.1582C66.2668 16.5047 65.7369 15.9749 65.0834 15.9749ZM63.9001 20.7082H61.5334V18.3415H63.9001V20.7082Z" fill="#FC7D34"/>
<path d="M65.0834 25.4414H60.3501C59.6966 25.4414 59.1667 25.9712 59.1667 26.6247V31.3581C59.1667 32.0116 59.6966 32.5414 60.3501 32.5414H65.0834C65.7369 32.5414 66.2668 32.0116 66.2668 31.3581V26.6247C66.2668 25.9712 65.7369 25.4414 65.0834 25.4414ZM63.9001 30.1747H61.5334V27.8081H63.9001V30.1747Z" fill="#FC7D34"/>
<path d="M65.0834 34.9082H60.3501C59.6966 34.9082 59.1667 35.438 59.1667 36.0915V40.8249C59.1667 41.4784 59.6966 42.0082 60.3501 42.0082H65.0834C65.7369 42.0082 66.2668 41.4784 66.2668 40.8249V36.0915C66.2668 35.438 65.7369 34.9082 65.0834 34.9082ZM63.9001 39.6415H61.5334V37.2749H63.9001V39.6415Z" fill="#FC7D34"/>
<path d="M65.0834 44.375H60.3501C59.6966 44.375 59.1667 44.9048 59.1667 45.5583V50.2917C59.1667 50.9452 59.6966 51.475 60.3501 51.475H65.0834C65.7369 51.475 66.2668 50.9452 66.2668 50.2917V45.5583C66.2668 44.9048 65.7369 44.375 65.0834 44.375ZM63.9001 49.1083H61.5334V46.7417H63.9001V49.1083Z" fill="#FC7D34"/>
<path d="M65.0834 53.8416H60.3501C59.6966 53.8416 59.1667 54.3714 59.1667 55.0249V59.7582C59.1667 60.4117 59.6966 60.9416 60.3501 60.9416H65.0834C65.7369 60.9416 66.2668 60.4117 66.2668 59.7582V55.0249C66.2668 54.3714 65.7369 53.8416 65.0834 53.8416ZM63.9001 58.5749H61.5334V56.2082H63.9001V58.5749Z" fill="#FC7D34"/>
</g>
<defs>
<clipPath id="clip0">
<rect width="71" height="71" fill="white"/>
</clipPath>
</defs>
</svg>
